<svg width="24" height="24" viewBox="0 0 24 24" fill="none" xmlns="http://www.w3.org/2000/svg">
<path d="M1.988 4.85018V16.7402C1.988 17.7102 2.778 18.6002 3.748 18.7202L4.058 18.7602C5.698 18.9802 8.008 19.6602 9.868 20.4402C10.518 20.7102 11.238 20.2202 11.238 19.5102V5.60018C11.238 5.23018 11.028 4.89018 10.698 4.71018C8.868 3.72018 6.098 2.84018 4.218 2.68018H4.158C2.958 2.68018 1.988 3.65018 1.988 4.85018ZM13.28 4.71018C15.11 3.72018 17.88 2.84018 19.76 2.68018H19.83C21.03 2.68018 22 3.65018 22 4.85018V16.7402C22 17.7102 21.21 18.6002 20.24 18.7202L19.93 18.7602C18.29 18.9802 15.98 19.6602 14.12 20.4402C13.47 20.7102 12.75 20.2202 12.75 19.5102V5.60018C12.7487 5.41758 12.7974 5.2381 12.8908 5.0812C12.9842 4.92431 13.1188 4.796 13.28 4.71018ZM18.99 7.74018H16.74C16.5411 7.74018 16.3503 7.81919 16.2097 7.95985C16.069 8.1005 15.99 8.29126 15.99 8.49018C15.99 8.68909 16.069 8.87985 16.2097 9.02051C16.3503 9.16116 16.5411 9.24018 16.74 9.24018H18.99C19.1889 9.24018 19.3797 9.16116 19.5203 9.02051C19.661 8.87985 19.74 8.68909 19.74 8.49018C19.74 8.29126 19.661 8.1005 19.5203 7.95985C19.3797 7.81919 19.1889 7.74018 18.99 7.74018ZM15.99 12.2402H18.99C19.1889 12.2402 19.3797 12.1612 19.5203 12.0205C19.661 11.8799 19.74 11.6891 19.74 11.4902C19.74 11.2913 19.661 11.1005 19.5203 10.9598C19.3797 10.8192 19.1889 10.7402 18.99 10.7402H15.99C15.7911 10.7402 15.6003 10.8192 15.4597 10.9598C15.319 11.1005 15.24 11.2913 15.24 11.4902C15.24 11.6891 15.319 11.8799 15.4597 12.0205C15.6003 12.1612 15.7911 12.2402 15.99 12.2402Z" fill="#4E5157"/>
</svg>
