<svg width="28" height="28" viewBox="0 0 28 28" fill="none" xmlns="http://www.w3.org/2000/svg">
<path d="M13.9999 25.6666C20.4166 25.6666 25.6666 20.4166 25.6666 13.9999C25.6666 7.58325 20.4166 2.33325 13.9999 2.33325C7.58325 2.33325 2.33325 7.58325 2.33325 13.9999C2.33325 20.4166 7.58325 25.6666 13.9999 25.6666Z" fill="url(#paint0_linear_767_17811)" stroke="#7DCA2E" stroke-width="1.5" stroke-linecap="round" stroke-linejoin="round"/>
<path d="M14.922 9.83994L9.73181 15.0289C9.52655 15.2341 9.33595 15.6152 9.29196 15.8937L9.01339 17.8726C8.91076 18.5908 9.40925 19.0892 10.1277 18.9866L12.107 18.7081C12.3856 18.6641 12.7814 18.4736 12.972 18.2684L18.1623 13.0794C19.0566 12.1852 19.4818 11.1445 18.1623 9.82528C16.8574 8.52071 15.8164 8.9458 14.922 9.83994Z" stroke="white" stroke-width="1.5" stroke-miterlimit="10" stroke-linecap="round" stroke-linejoin="round"/>
<path d="M14 10C14.5405 11.9459 16.0541 13.4595 18 14" stroke="white" stroke-width="1.5" stroke-miterlimit="10" stroke-linecap="round" stroke-linejoin="round"/>
<defs>
<linearGradient id="paint0_linear_767_17811" x1="13.9999" y1="2.33325" x2="13.9999" y2="25.6666" gradientUnits="userSpaceOnUse">
<stop stop-color="#9BC838"/>
<stop offset="1" stop-color="#4F9D01"/>
</linearGradient>
</defs>
</svg>
