<svg width="24" height="25" viewBox="0 0 24 25" fill="none" xmlns="http://www.w3.org/2000/svg">
<path d="M4.92501 5H11.0682C11.579 5 12 5.50262 12 6.11236V7.33183C12 7.77677 11.7653 8.32883 11.5375 8.60898L9.53583 10.7183C9.25973 10.9985 9.07337 11.5505 9.07337 11.9955V14.385C9.07337 14.7146 8.887 15.1595 8.65232 15.3326L8.00349 15.8352C7.39608 16.2801 6.56089 15.7775 6.56089 14.8876V11.946C6.56089 11.5588 6.37452 11.0562 6.18815 10.776L4.42113 8.5513C4.18645 8.27115 4.00008 7.77677 4.00008 7.43894V6.16179C3.99318 5.50262 4.41423 5 4.92501 5Z" stroke="#7DCA2E" stroke-width="1.5" stroke-miterlimit="10" stroke-linecap="round" stroke-linejoin="round"/>
<path d="M4 12.9028V15.332C4 19.3806 5.6 21 9.6 21H14.4C18.4 21 20 19.3806 20 15.332V10.4737C20 7.94737 19.376 6.36032 17.928 5.53441C17.52 5.2996 16.704 5.12146 15.96 5M12.8 13.7126H16.8M11.2 16.9514H16.8" stroke="#7DCA2E" stroke-width="1.5" stroke-linecap="round" stroke-linejoin="round"/>
</svg>
