<svg width="24" height="24" viewBox="0 0 24 24" fill="none" xmlns="http://www.w3.org/2000/svg">
<g filter="url(#filter0_d_281_494)">
<path d="M15.3091 8.69381C14.3958 7.78054 13.5014 7.757 12.5646 8.69381L11.995 9.26342C11.9479 9.3105 11.9291 9.38582 11.9479 9.45172C12.3057 10.6992 13.3037 11.6972 14.5512 12.055C14.57 12.0597 14.5888 12.0644 14.6077 12.0644C14.6594 12.0644 14.7065 12.0456 14.7442 12.0079L15.3091 11.4383C15.7751 10.977 16.0011 10.5298 16.0011 10.0778C16.0058 9.61178 15.7798 9.15985 15.3091 8.69381Z" fill="#4E5157"/>
<path d="M13.704 12.4838C13.5675 12.4179 13.4357 12.352 13.3086 12.2767C13.205 12.2155 13.1061 12.1496 13.0073 12.079C12.9273 12.0272 12.8331 11.9519 12.7437 11.8766C12.7342 11.8719 12.7013 11.8436 12.6636 11.806C12.5083 11.6741 12.3341 11.5047 12.1788 11.3164C12.1646 11.3069 12.1411 11.274 12.1081 11.2316C12.0611 11.1751 11.981 11.081 11.9104 10.9727C11.8539 10.9021 11.788 10.7985 11.7268 10.695C11.6515 10.5679 11.5856 10.4408 11.5197 10.3089C11.5097 10.2876 11.5001 10.2663 11.4907 10.2452C11.4213 10.0883 11.2166 10.0424 11.0953 10.1637L8.39859 12.8605C8.33739 12.9217 8.2809 13.0393 8.26678 13.1194L8.01257 14.9224C7.96549 15.2425 8.05494 15.5438 8.25265 15.7462C8.42213 15.911 8.6575 16.0004 8.91171 16.0004C8.9682 16.0004 9.02469 15.9957 9.08119 15.9863L10.8889 15.7321C10.9736 15.7179 11.0913 15.6615 11.1478 15.6003L13.8411 12.9069C13.9633 12.7847 13.9173 12.575 13.7583 12.5072C13.7404 12.4996 13.7223 12.4918 13.704 12.4838Z" fill="#4E5157"/>
</g>
<defs>
<filter id="filter0_d_281_494" x="-4" y="-4" width="32" height="32" filterUnits="userSpaceOnUse" color-interpolation-filters="sRGB">
<feFlood flood-opacity="0" result="BackgroundImageFix"/>
<feColorMatrix in="SourceAlpha" type="matrix" values="0 0 0 0 0 0 0 0 0 0 0 0 0 0 0 0 0 0 127 0" result="hardAlpha"/>
<feOffset/>
<feGaussianBlur stdDeviation="2"/>
<feComposite in2="hardAlpha" operator="out"/>
<feColorMatrix type="matrix" values="0 0 0 0 0.78 0 0 0 0 0.78 0 0 0 0 0.78 0 0 0 1 0"/>
<feBlend mode="normal" in2="BackgroundImageFix" result="effect1_dropShadow_281_494"/>
<feBlend mode="normal" in="SourceGraphic" in2="effect1_dropShadow_281_494" result="shape"/>
</filter>
</defs>
</svg>
