<svg width="24" height="24" viewBox="0 0 24 24" fill="none" xmlns="http://www.w3.org/2000/svg">
<circle cx="12" cy="12" r="12" fill="white"/>
<path d="M15.62 8.78947H15.42L13.73 7.09947C13.664 7.03455 13.5751 6.99817 13.4825 6.99817C13.3899 6.99817 13.301 7.03455 13.235 7.09947C13.1 7.23447 13.1 7.45447 13.235 7.59447L14.43 8.78947H9.57L10.765 7.59447C10.9 7.45947 10.9 7.23947 10.765 7.09947C10.699 7.03455 10.6101 6.99817 10.5175 6.99817C10.4249 6.99817 10.336 7.03455 10.27 7.09947L8.585 8.78947H8.385C7.935 8.78947 7 8.78947 7 10.0695C7 10.5545 7.1 10.8745 7.31 11.0845C7.43 11.2095 7.575 11.2745 7.73 11.3095C7.875 11.3445 8.03 11.3495 8.18 11.3495H15.82C15.975 11.3495 16.12 11.3395 16.26 11.3095C16.68 11.2095 17 10.9095 17 10.0695C17 8.78947 16.065 8.78947 15.62 8.78947ZM15.545 12H8.455C8.145 12 7.91 12.275 7.96 12.58L8.38 15.15C8.52 16.01 8.895 17 10.56 17H13.365C15.05 17 15.35 16.155 15.53 15.21L16.035 12.595C16.0493 12.5226 16.0473 12.448 16.0293 12.3766C16.0113 12.3051 15.9776 12.2385 15.9307 12.1816C15.8839 12.1247 15.825 12.0789 15.7583 12.0475C15.6916 12.016 15.6187 11.9998 15.545 12ZM13.44 14.025L11.815 15.525C11.745 15.59 11.655 15.625 11.56 15.625C11.465 15.625 11.37 15.59 11.295 15.515L10.545 14.765C10.4753 14.6944 10.4361 14.5992 10.4361 14.5C10.4361 14.4008 10.4753 14.3055 10.545 14.235C10.695 14.09 10.93 14.09 11.08 14.235L11.575 14.73L12.935 13.475C13.085 13.335 13.325 13.345 13.465 13.495C13.605 13.65 13.595 13.885 13.44 14.025Z" fill="#7DCA2E"/>
</svg>
