<svg width="9" height="14" viewBox="0 0 9 14" fill="none" xmlns="http://www.w3.org/2000/svg">
<path d="M2.62012 6.99994C2.62012 6.27994 2.03012 5.68994 1.31012 5.68994C0.590117 5.68994 0.000117058 6.27994 0.000117026 6.99994C0.000116995 7.71994 0.590116 8.30994 1.31012 8.30994C2.03012 8.30994 2.62012 7.71994 2.62012 6.99994ZM2.62012 1.99994C2.62012 1.27994 2.03012 0.689941 1.31012 0.689941C0.590117 0.689941 0.000117276 1.27994 0.000117245 1.99994C0.000117213 2.71994 0.590117 3.30994 1.31012 3.30994C2.03012 3.30994 2.62012 2.71994 2.62012 1.99994ZM2.62012 11.9999C2.62012 11.2799 2.03012 10.6899 1.31012 10.6899C0.590116 10.6899 0.000116839 11.2799 0.000116808 11.9999C0.000116776 12.7199 0.590116 13.3099 1.31012 13.3099C2.03012 13.3099 2.62012 12.7199 2.62012 11.9999Z" fill="#DFE2E5"/>
<path d="M8.24023 6.99994C8.24023 6.27994 7.65023 5.68994 6.93023 5.68994C6.21023 5.68994 5.62023 6.27994 5.62023 6.99994C5.62023 7.71994 6.21023 8.30994 6.93023 8.30994C7.65023 8.30994 8.24023 7.71994 8.24023 6.99994ZM8.24023 1.99994C8.24023 1.27994 7.65023 0.689941 6.93023 0.689941C6.21023 0.689941 5.62023 1.27994 5.62023 1.99994C5.62023 2.71994 6.21023 3.30994 6.93023 3.30994C7.65023 3.30994 8.24023 2.71994 8.24023 1.99994ZM8.24023 11.9999C8.24023 11.2799 7.65023 10.6899 6.93023 10.6899C6.21023 10.6899 5.62023 11.2799 5.62023 11.9999C5.62023 12.7199 6.21023 13.3099 6.93023 13.3099C7.65023 13.3099 8.24023 12.7199 8.24023 11.9999Z" fill="#DFE2E5"/>
</svg>
