<svg width="30" height="30" viewBox="0 0 30 30" fill="none" xmlns="http://www.w3.org/2000/svg">
<g clip-path="url(#clip0_895_2386)">
<path d="M26.0325 5.37293H25.4575L20.5988 0.303846C20.4089 0.109121 20.1534 0 19.8872 0C19.621 0 19.3654 0.109121 19.1756 0.303846C18.7875 0.708773 18.7875 1.36865 19.1756 1.78858L22.6113 5.37293H8.63875L12.0744 1.78858C12.4625 1.38365 12.4625 0.72377 12.0744 0.303846C11.8846 0.109121 11.629 0 11.3628 0C11.0966 0 10.8411 0.109121 10.6512 0.303846L5.80688 5.37293H5.23187C3.93813 5.37293 1.25 5.37293 1.25 9.21224C1.25 10.667 1.5375 11.6268 2.14125 12.2567C2.48625 12.6316 2.90313 12.8266 3.34875 12.9316C3.76563 13.0366 4.21125 13.0516 4.6425 13.0516H26.6075C27.0531 13.0516 27.47 13.0216 27.8725 12.9316C29.08 12.6316 30 11.7318 30 9.21224C30 5.37293 27.3119 5.37293 26.0325 5.37293ZM25.8169 15.0027H5.43312C4.54187 15.0027 3.86625 15.8276 4.01 16.7424L5.2175 24.451C5.62 27.0305 6.69812 30 11.485 30H19.5494C24.3937 30 25.2562 27.4655 25.7737 24.631L27.2256 16.7874C27.2667 16.5704 27.2611 16.3467 27.2092 16.1323C27.1574 15.9179 27.0606 15.7181 26.9259 15.5474C26.7911 15.3767 26.6218 15.2393 26.43 15.1451C26.2382 15.0509 26.0288 15.0023 25.8169 15.0027ZM19.765 21.0766L15.0931 25.5758C14.8919 25.7708 14.6331 25.8757 14.36 25.8757C14.0869 25.8757 13.8138 25.7708 13.5981 25.5458L11.4419 23.2962C11.2414 23.0845 11.1289 22.7989 11.1289 22.5014C11.1289 22.2038 11.2414 21.9182 11.4419 21.7065C11.8731 21.2716 12.5487 21.2716 12.98 21.7065L14.4031 23.1912L18.3131 19.4269C18.7444 19.007 19.4344 19.037 19.8369 19.4869C20.2394 19.9518 20.2106 20.6567 19.765 21.0766Z" fill="url(#paint0_linear_895_2386)"/>
</g>
<defs>
<linearGradient id="paint0_linear_895_2386" x1="15.625" y1="0" x2="15.625" y2="30" gradientUnits="userSpaceOnUse">
<stop stop-color="#9BC838"/>
<stop offset="1" stop-color="#4F9D01"/>
</linearGradient>
<clipPath id="clip0_895_2386">
<rect width="30" height="30" fill="white"/>
</clipPath>
</defs>
</svg>
