<svg width="21" height="21" viewBox="0 0 21 21" fill="none" xmlns="http://www.w3.org/2000/svg">
<path d="M15.2316 3.60116L9.80577 0.681772C9.22958 0.374468 8.54775 0.374468 7.97155 0.681772L2.55528 3.60116C2.16155 3.82204 1.91187 4.24458 1.91187 4.70554C1.91187 5.1761 2.15195 5.59864 2.55528 5.80991L7.98115 8.72925C8.26925 8.88291 8.58616 8.95983 8.89346 8.95983C9.20077 8.95983 9.52728 8.88291 9.80577 8.72925L15.2316 5.80991C15.6253 5.59864 15.875 5.1761 15.875 4.70554C15.875 4.24458 15.6253 3.82204 15.2316 3.60116Z" fill="white"/>
<path d="M7.08752 9.74667L2.04581 7.2306C1.65208 7.02893 1.21033 7.05774 0.835799 7.27862C0.470875 7.50909 0.25 7.90283 0.25 8.33499V13.0982C0.25 13.9241 0.710956 14.6635 1.45041 15.0381L6.49212 17.5541C6.66498 17.6406 6.85704 17.6886 7.04911 17.6886C7.26998 17.6886 7.50046 17.6213 7.70213 17.5061C8.06705 17.2756 8.28793 16.8819 8.28793 16.4497V11.6865C8.27832 10.8607 7.81737 10.1212 7.08752 9.74667Z" fill="white"/>
<path d="M17.5364 8.33499V10.6974C17.0754 10.563 16.5857 10.5053 16.0959 10.5053C14.7898 10.5053 13.5126 10.9567 12.5043 11.7634C11.1214 12.8485 10.3339 14.4907 10.3339 16.2673C10.3339 16.7378 10.3916 17.2084 10.5164 17.6598C10.3724 17.6406 10.2283 17.5829 10.0939 17.4965C9.72893 17.2756 9.50806 16.8819 9.50806 16.4497V11.6865C9.50806 10.8607 9.96901 10.1212 10.6989 9.74667L15.7406 7.2306C16.1343 7.02893 16.5761 7.05774 16.9506 7.27862C17.3155 7.50909 17.5364 7.90283 17.5364 8.33499Z" fill="white"/>
<path d="M20.0135 19.1467L19.2068 18.34C19.6294 17.7062 19.8791 16.9379 19.8791 16.1217C19.8791 13.8841 18.0641 12.0691 15.8265 12.0691C13.5889 12.0691 11.7739 13.8841 11.7739 16.1217C11.7739 18.3592 13.5889 20.1742 15.8265 20.1742C16.6428 20.1742 17.411 19.9246 18.0449 19.502L18.8515 20.3087C19.0148 20.4719 19.2165 20.5488 19.4277 20.5488C19.639 20.5488 19.8503 20.4719 20.0039 20.3087C20.3304 19.9822 20.3304 19.4636 20.0135 19.1467Z" fill="white"/>
</svg>
