<svg width="10" height="10" viewBox="0 0 10 10" fill="none" xmlns="http://www.w3.org/2000/svg">
<path d="M7.30885 0.693806C6.39558 -0.219462 5.50114 -0.243 4.56434 0.693806L3.99472 1.26342C3.94765 1.3105 3.92882 1.38582 3.94765 1.45172C4.30542 2.69923 5.30342 3.69723 6.55093 4.055C6.56976 4.05971 6.58859 4.06441 6.60742 4.06441C6.6592 4.06441 6.70628 4.04558 6.74394 4.00792L7.30885 3.43832C7.7749 2.97697 8.00086 2.52976 8.00086 2.07783C8.00557 1.61178 7.7796 1.15985 7.30885 0.693806Z" fill="#4E5157"/>
<path d="M5.70376 4.48385C5.56724 4.41794 5.43543 4.35204 5.30833 4.27672C5.20476 4.21552 5.1059 4.14961 5.00704 4.079C4.92701 4.02722 4.83286 3.95189 4.74342 3.87657C4.734 3.87187 4.70105 3.84362 4.66339 3.80596C4.50804 3.67414 4.33386 3.50467 4.17851 3.31636C4.16439 3.30695 4.14085 3.274 4.1079 3.23163C4.06082 3.17514 3.98079 3.08098 3.91018 2.97271C3.85369 2.9021 3.78778 2.79853 3.72658 2.69496C3.65126 2.56786 3.58536 2.44076 3.51945 2.30894C3.50947 2.28758 3.49982 2.26631 3.4905 2.24518C3.42102 2.08826 3.21638 2.04239 3.09506 2.16373L0.398344 4.86045C0.337146 4.92165 0.280655 5.03934 0.266532 5.11937L0.0123235 6.92237C-0.0347521 7.24248 0.0546917 7.54377 0.25241 7.74619C0.421882 7.91096 0.65726 8.0004 0.911469 8.0004C0.967959 8.0004 1.02445 7.99569 1.08094 7.98628L2.88865 7.73207C2.97338 7.71795 3.09106 7.66146 3.14755 7.60026L5.84089 4.90692C5.9631 4.78471 5.91701 4.57503 5.75809 4.5072C5.7402 4.49957 5.72207 4.49176 5.70376 4.48385Z" fill="#4E5157"/>
</svg>
