<svg width="21" height="21" viewBox="0 0 21 21" fill="none" xmlns="http://www.w3.org/2000/svg">
<path d="M20.0273 17.0488L18.377 17.4389C18.0069 17.5289 17.7169 17.8089 17.6368 18.179L17.2868 19.6493C17.0967 20.4494 16.0766 20.6995 15.5465 20.0694L12.5559 16.6287C12.3159 16.3487 12.4459 15.9086 12.8059 15.8186C14.5763 15.3885 16.1666 14.3983 17.3368 12.988C17.5268 12.758 17.8669 12.728 18.0769 12.938L20.2973 15.1584C21.0575 15.9186 20.7874 16.8688 20.0273 17.0488Z" fill="white"/>
<path d="M1.47276 17.0488L3.12307 17.4389C3.49314 17.5289 3.78319 17.8089 3.86321 18.179L4.21327 19.6493C4.40331 20.4494 5.4235 20.6995 5.9536 20.0694L8.94417 16.6287C9.18421 16.3487 9.05419 15.9086 8.69411 15.8186C6.92378 15.3885 5.33348 14.3983 4.16326 12.988C3.97323 12.758 3.63316 12.728 3.42312 12.938L1.20271 15.1584C0.442566 15.9186 0.712617 16.8688 1.47276 17.0488Z" fill="white"/>
<path d="M10.7752 0.575562C6.90451 0.575562 3.77393 3.70615 3.77393 7.57687C3.77393 9.02714 4.20401 10.3574 4.94414 11.4676C6.02435 13.0679 7.73467 14.1981 9.72504 14.4882C10.0651 14.5482 10.4152 14.5782 10.7752 14.5782C11.1353 14.5782 11.4854 14.5482 11.8254 14.4882C13.8158 14.1981 15.5261 13.0679 16.6063 11.4676C17.3465 10.3574 17.7765 9.02714 17.7765 7.57687C17.7765 3.70615 14.646 0.575562 10.7752 0.575562ZM13.8358 7.35683L13.0057 8.18698C12.8656 8.32701 12.7856 8.59706 12.8356 8.7971L13.0757 9.82729C13.2657 10.6374 12.8356 10.9575 12.1155 10.5274L11.1153 9.93731C10.9353 9.82729 10.6352 9.82729 10.4552 9.93731L9.45499 10.5274C8.73485 10.9475 8.30477 10.6374 8.49481 9.82729L8.73485 8.7971C8.77486 8.60706 8.70485 8.32701 8.56482 8.18698L7.71466 7.35683C7.22457 6.86674 7.3846 6.37665 8.06473 6.26663L9.13493 6.08659C9.31496 6.05659 9.525 5.89656 9.60502 5.73653L10.1951 4.55631C10.5152 3.91619 11.0353 3.91619 11.3553 4.55631L11.9455 5.73653C12.0255 5.89656 12.2355 6.05659 12.4255 6.08659L13.4957 6.26663C14.1659 6.37665 14.3259 6.86674 13.8358 7.35683Z" fill="white"/>
</svg>
