<svg width="24" height="24" viewBox="0 0 24 24" fill="none" xmlns="http://www.w3.org/2000/svg">
<path d="M12 5C8.143 5 5 8.143 5 12C5 15.857 8.143 19 12 19C15.857 19 19 15.857 19 12C19 8.143 15.857 5 12 5ZM11.475 9.2C11.475 8.913 11.713 8.675 12 8.675C12.287 8.675 12.525 8.913 12.525 9.2V12.7C12.525 12.987 12.287 13.225 12 13.225C11.713 13.225 11.475 12.987 11.475 12.7V9.2ZM12.644 15.066C12.609 15.157 12.56 15.227 12.497 15.297C12.427 15.36 12.35 15.409 12.266 15.444C12.182 15.479 12.091 15.5 12 15.5C11.909 15.5 11.818 15.479 11.734 15.444C11.65 15.409 11.573 15.36 11.503 15.297C11.44 15.227 11.391 15.157 11.356 15.066C11.321 14.982 11.3 14.891 11.3 14.8C11.3 14.709 11.321 14.618 11.356 14.534C11.391 14.45 11.44 14.373 11.503 14.303C11.573 14.24 11.65 14.191 11.734 14.156C11.902 14.086 12.098 14.086 12.266 14.156C12.35 14.191 12.427 14.24 12.497 14.303C12.56 14.373 12.609 14.45 12.644 14.534C12.679 14.618 12.7 14.709 12.7 14.8C12.7 14.891 12.679 14.982 12.644 15.066Z" fill="#4E5157"/>
</svg>
