<svg width="24" height="24" viewBox="0 0 24 24" fill="none" xmlns="http://www.w3.org/2000/svg">
<path d="M12.501 17.0474C13.2661 17.0474 13.8865 16.4271 13.8865 15.6619C13.8865 14.8967 13.2661 14.2764 12.501 14.2764C11.7358 14.2764 11.1155 14.8967 11.1155 15.6619C11.1155 16.4271 11.7358 17.0474 12.501 17.0474Z" fill="#4E5157"/>
<path d="M17.838 10.4005V9.338C17.838 7.043 17.2855 4 12.5 4C7.7145 4 7.162 7.043 7.162 9.338V10.4005C4.782 10.698 4 11.905 4 14.8715V16.4525C4 19.9375 5.0625 21 8.5475 21H16.4525C19.9375 21 21 19.9375 21 16.4525V14.8715C21 11.905 20.218 10.698 17.838 10.4005ZM12.5 18.229C11.0805 18.229 9.933 17.073 9.933 15.662C9.933 14.2425 11.089 13.095 12.5 13.095C13.911 13.095 15.067 14.251 15.067 15.662C15.067 17.0815 13.9195 18.229 12.5 18.229ZM8.5475 10.324C8.4795 10.324 8.42 10.324 8.352 10.324V9.338C8.352 6.8475 9.0575 5.19 12.5 5.19C15.9425 5.19 16.648 6.8475 16.648 9.338V10.3325C16.58 10.3325 16.5205 10.3325 16.4525 10.3325H8.5475V10.324Z" fill="#4E5157"/>
</svg>
