<svg width="24" height="24" viewBox="0 0 24 24" fill="none" xmlns="http://www.w3.org/2000/svg">
<path d="M13.4957 4C13.895 4 14.2264 4.32284 14.2264 4.73063V20.2694C14.2264 20.6687 13.9035 21 13.4957 21C8.49175 21 5 17.5082 5 12.5042C5 7.50025 8.50025 4 13.4957 4Z" fill="#FF2221"/>
<path d="M19.6983 12.1046L17.2855 9.68332C17.0391 9.43694 16.6313 9.43694 16.3849 9.68332C16.1386 9.92969 16.1386 10.3375 16.3849 10.5839L17.7103 11.9092H9.57981C9.23148 11.9092 8.94263 12.1981 8.94263 12.5464C8.94263 12.8947 9.23148 13.1836 9.57981 13.1836H17.7103L16.3849 14.5089C16.1386 14.7553 16.1386 15.1631 16.3849 15.4094C16.5124 15.5369 16.6738 15.5964 16.8352 15.5964C16.9966 15.5964 17.1581 15.5369 17.2855 15.4094L19.6983 12.9882C19.9447 12.7503 19.9447 12.351 19.6983 12.1046Z" fill="#FF2221"/>
</svg>
