<svg width="271" height="290" viewBox="0 0 271 290" fill="none" xmlns="http://www.w3.org/2000/svg">
<path fill-rule="evenodd" clip-rule="evenodd" d="M184.147 1.75C184.559 2.713 185.108 4.738 185.368 6.25C185.639 7.829 186.484 9 187.351 9C188.514 9 188.717 8.272 188.232 5.845C187.549 2.429 185.95 0 184.384 0C183.827 0 183.725 0.762 184.147 1.75ZM179.613 1.941C179.613 2.459 180.063 3.16 180.613 3.5C181.163 3.84 181.613 5.441 181.613 7.059C181.613 10.342 183.156 11.015 184.071 8.132C184.883 5.573 183.003 1 181.138 1C180.299 1 179.613 1.423 179.613 1.941ZM170.224 7.722C169.827 8.12 167.389 8.457 164.807 8.472C160.352 8.499 160.096 8.651 159.775 11.469C159.59 13.101 158.577 15.646 157.525 17.123C154.816 20.928 155.098 21.765 159.538 23.096C165.427 24.86 166.939 23.887 166.092 18.877L165.396 14.759L168.579 16.63C171.7 18.464 171.789 18.462 173.187 16.559C173.971 15.491 174.613 12.904 174.613 10.809C174.613 7.782 174.237 7 172.78 7C171.771 7 170.621 7.325 170.224 7.722ZM172.543 10.75C172.504 11.163 172.159 12.291 171.777 13.258C171.122 14.913 170.94 14.918 168.676 13.331C166.396 11.735 166.371 11.607 168.192 10.894C170.753 9.89 172.629 9.828 172.543 10.75ZM139.588 17.565C138.343 20.841 138.357 22.654 139.648 25.066C141.426 28.388 142.146 27.216 142.146 21C142.146 14.631 141.191 13.348 139.588 17.565ZM163.543 19.75C163.581 20.438 162.713 21 161.613 21C159.314 21 159.088 19.813 160.851 16.99C161.996 15.157 162.142 15.139 162.781 16.754C163.161 17.714 163.504 19.063 163.543 19.75ZM144.022 20.507C143.627 22.078 144.002 23.945 145.026 25.507C146.902 28.371 149.235 28.941 148.068 26.25C147.65 25.288 147.103 23.038 146.851 21.25C146.307 17.38 144.899 17.01 144.022 20.507ZM98.8579 28.236C99.0849 28.915 101.177 29.797 103.507 30.195C111.531 31.565 116.617 36.145 122.07 46.911C126.384 55.43 132.155 81 129.764 81C127.436 81 95.9329 85.411 75.6939 88.57C59.1199 91.157 53.0869 91.767 52.5549 90.907C52.1599 90.267 51.5399 87.507 51.1769 84.773C49.6429 73.204 43.1919 57.007 37.5679 50.602C32.1209 44.398 21.1939 42.185 17.5699 46.552C16.4799 47.865 17.0059 47.971 21.7929 47.409C28.1709 46.659 31.8669 48.136 36.0489 53.107C42.6819 60.989 46.3179 71.89 50.6039 96.737C52.2889 106.507 56.4809 130.056 59.9199 149.068L66.1719 183.636L62.4549 191.568C54.2189 209.144 53.5089 223.312 60.6159 228.289C61.8329 229.142 62.5189 230.343 62.1399 230.957C60.9099 232.947 62.7039 239.806 65.1429 242.437C69.8649 247.533 78.6129 244.3 78.6129 237.46V235.189L87.3629 237.642C101.985 241.741 135.516 249.792 145.889 251.695C155.628 253.482 155.662 253.499 155.082 256.141C154.408 259.211 156.828 265.683 159.374 267.616C162.441 269.945 167.225 269.308 169.639 266.25C171.357 264.074 171.719 262.542 171.374 258.913L170.938 254.326L180.025 252.637C185.024 251.708 194.788 249.357 201.725 247.413L214.337 243.878L217.398 246.939C220.989 250.53 224.279 250.837 227.978 247.927C230.198 246.182 230.613 245.066 230.613 240.85C230.613 236.653 230.142 235.375 227.69 232.923C224.426 229.659 220.338 229.104 216.964 231.467C215.365 232.587 214.071 232.705 211.491 231.965C209.633 231.432 191.688 227.792 171.613 223.877C135.276 216.79 135.098 216.743 131.749 213.379C128.281 209.895 124.323 209.015 120.743 210.93C117.904 212.45 116.385 210.733 117.117 206.831C117.474 204.928 118.096 202.837 118.498 202.186C119.035 201.317 125.077 202.478 141.172 206.543C173.599 214.732 170.34 214.833 206.61 204.515C223.383 199.744 237.265 195.682 237.458 195.488C237.652 195.294 238.407 181.043 239.137 163.818C240.368 134.763 240.343 132.404 238.789 131.166C235.418 128.483 214.176 118.215 174.113 99.902L133.113 81.162L132.362 74.331C131.343 65.056 127.193 50.868 123.44 43.827C118.046 33.707 109.045 27.025 100.78 27.006C99.3699 27.002 98.6089 27.489 98.8579 28.236ZM104.985 52.344C105.411 54.042 104.889 55.332 103.093 57.019C100.242 59.697 99.7269 65.019 102.125 67.01C103.233 67.929 103.349 68.613 102.561 69.563C100.042 72.598 110.458 74.353 114.172 71.519C115.734 70.327 115.849 69.864 114.76 69.146C113.721 68.462 113.663 67.775 114.51 66.193C115.117 65.059 115.613 62.977 115.613 61.566C115.613 59.952 116.169 59 117.113 59C120.195 59 118.458 57.373 114.144 56.22C111.346 55.471 109.06 54.085 108.029 52.512C105.957 49.349 104.209 49.253 104.985 52.344ZM72.4849 56.655C70.6239 58.899 65.0819 61.117 63.1689 60.383C62.1589 59.995 61.6129 60.35 61.6129 61.393C61.6129 62.44 62.4829 63 64.1129 63C66.0479 63 66.6129 63.515 66.6129 65.277C66.6129 66.53 67.2929 68.526 68.1239 69.712C69.1339 71.154 69.2839 72.085 68.5749 72.523C66.2889 73.936 69.8729 76 74.6129 76C79.3419 76 82.9359 73.936 80.6589 72.528C79.9449 72.087 79.9289 71.278 80.6099 70.005C82.3189 66.813 81.7729 62.227 79.4239 60.039C78.2209 58.918 76.8709 58 76.4239 58C75.9779 58 75.6129 57.325 75.6129 56.5C75.6129 54.524 74.1939 54.594 72.4849 56.655ZM106.261 60.559C106.342 61.966 107.131 63.915 108.013 64.89C110.091 67.185 109.066 68.164 106.032 66.781C103.116 65.452 102.139 62.754 103.593 60.038C105.07 57.278 106.083 57.476 106.261 60.559ZM74.6279 68.518C76.3309 70.57 75.2739 71.424 72.7219 70.058C69.3239 68.24 68.4709 65.648 70.3749 62.93L72.0409 60.55L72.6999 63.769C73.0619 65.539 73.9289 67.676 74.6279 68.518ZM89.1699 70.223C87.2069 73.024 87.1869 75.402 89.1129 77C90.3979 78.066 90.6129 77.741 90.6129 74.729C90.6129 70.129 92.9189 69.215 96.2139 72.51C99.2129 75.509 99.6129 75.573 99.6129 73.057C99.6129 70.722 96.0249 68 92.9469 68C91.7259 68 90.0259 69 89.1699 70.223ZM130.583 93.75C130.56 100.863 130.276 103.027 129.533 101.75C128.091 99.275 125.935 99.579 124.001 102.531C122.119 105.403 122.863 106.924 125.408 105.411C126.346 104.853 127.9 104.566 128.863 104.772C130.401 105.101 130.613 106.48 130.613 116.157C130.613 122.212 130.27 127.017 129.851 126.833C129.432 126.65 125.858 125.233 121.908 123.684C116.435 121.538 114.867 120.5 115.32 119.322C115.806 118.055 115.361 117.896 112.861 118.445C110.438 118.978 106.183 117.652 92.2009 112.007C72.9539 104.237 59.1479 98.011 56.2649 95.8C54.6239 94.542 57.2039 93.963 79.2649 90.637C113.819 85.428 122.542 84.231 126.863 84.107L130.613 84L130.583 93.75ZM164.113 97.981C195.468 112.157 236.136 131.811 235.477 132.469C234.815 133.132 198.607 142 196.565 142C195.571 142 194.894 141.301 194.974 140.358C195.218 137.472 192.85 137.79 191.02 140.889C188.826 144.603 183.472 145.78 177.01 143.971C173.064 142.866 172.781 142.598 174.352 141.449C175.319 140.742 175.886 139.959 175.611 139.71C174.492 138.691 165.613 137.923 165.613 138.845C165.613 140.447 161.938 138.975 159.525 136.406C157.209 133.941 155.039 133.298 154.446 134.903C154.263 135.399 149.275 133.996 143.363 131.784L132.613 127.762V119.226C132.613 111.02 132.684 110.754 134.442 112.345C136.246 113.978 138.613 114.573 138.613 113.394C138.613 113.061 137.246 111.062 135.576 108.953L132.539 105.118L135.819 106.059C140.122 107.293 140.613 107.252 140.613 105.658C140.613 104.92 138.813 103.777 136.613 103.118C132.878 101.999 132.614 101.674 132.622 98.21C132.626 96.169 132.912 92.154 133.257 89.287C133.784 84.9 134.139 84.209 135.498 84.924C136.386 85.391 149.263 91.267 164.113 97.981ZM234.947 98.234C233.955 99.797 229.613 109.049 229.613 109.599C229.613 109.82 230.288 110 231.113 110C231.938 110 232.613 109.831 232.613 109.624C232.613 109.418 233.724 106.736 235.083 103.665C236.441 100.593 237.147 97.83 236.652 97.524C236.156 97.218 235.389 97.537 234.947 98.234ZM65.7399 103.452C71.9949 106.451 84.3129 111.82 93.1129 115.382C107.091 121.041 109.073 122.122 108.8 123.93C108.438 126.327 111.056 126.812 112.313 124.58C112.975 123.406 114.584 123.728 121.613 126.439L130.113 129.717L130.385 147.704L130.657 165.691L124.098 167.467C118.044 169.105 117.4 169.117 115.747 167.621C112.726 164.888 109.982 165.969 112.796 168.783C113.447 169.434 113.785 170.113 113.546 170.292C112.863 170.805 69.1429 182.788 68.8559 182.54C68.5829 182.306 53.6169 100.028 53.6139 98.75C53.6119 97.629 53.5109 97.59 65.7399 103.452ZM248.849 107.045C243.087 111.707 241.319 114 243.486 114C244.589 114 256.998 104.148 257.446 102.916C258.275 100.638 254.565 102.42 248.849 107.045ZM142.836 107.169C143.304 108.574 150.476 111.203 151.728 110.429C153.413 109.388 152.599 108.191 149.464 107.098C145.358 105.667 142.346 105.699 142.836 107.169ZM118.228 110.26C115.384 113.989 114.904 116.004 116.863 115.993C118.863 115.982 123.118 109.105 121.886 107.873C121.163 107.15 120.043 107.881 118.228 110.26ZM154.763 110.541C155.142 112.51 160.814 114.521 163.298 113.567C165.342 112.783 164.141 111.356 160.884 110.699C159.36 110.392 157.28 109.818 156.262 109.424C154.821 108.867 154.488 109.115 154.763 110.541ZM166.224 113.821C165.64 114.766 171.728 119 173.67 119C174.973 119 174.849 117.692 173.363 115.746C171.84 113.753 167.062 112.464 166.224 113.821ZM139.12 115.988C138.51 116.975 143.494 124 144.804 124C146.788 124 146.404 121.632 143.915 118.512C140.967 114.817 140.12 114.371 139.12 115.988ZM261.863 121.273C257.41 122.508 254.613 123.808 254.613 124.642C254.613 126.406 254.817 126.386 263.442 123.744C267.473 122.51 270.769 121.061 270.767 120.525C270.761 119.018 269.66 119.11 261.863 121.273ZM175.649 121.25C175.669 121.938 176.75 123.802 178.052 125.394C179.713 127.426 180.944 128.087 182.181 127.612C183.726 127.019 183.529 126.509 180.582 123.468C177.05 119.824 175.589 119.167 175.649 121.25ZM147.153 124.935C146.411 126.136 151.051 133 152.605 133C155.056 133 154.494 130.415 151.364 127.285C149.046 124.966 147.624 124.173 147.153 124.935ZM103.7 131.577C101.773 134.844 101.661 137.019 103.422 136.988C104.306 136.972 108.613 130.356 108.613 129.014C108.613 126.708 105.666 128.246 103.7 131.577ZM183.613 130.195C183.613 131.838 188.686 137 190.3 137C192.156 137 191.964 136.326 188.994 132.433C186.406 129.04 183.613 127.878 183.613 130.195ZM146.032 135.477C152.588 137.926 158.28 140.461 158.681 141.11C159.083 141.76 160.019 142.066 160.762 141.79C161.505 141.514 165.938 142.706 170.613 144.438L179.113 147.589L178.784 151.544C178.577 154.04 177.377 156.863 175.534 159.191C171.415 164.396 171.672 167.023 175.931 163.25C177.883 161.521 177.9 161.587 177.308 168.868C176.979 172.921 176.53 176.416 176.311 176.635C176.092 176.855 173.632 176.507 170.844 175.864L165.776 174.694L169.186 171.097C172.8 167.284 173.362 166 171.418 166C169.719 166 164.613 171.098 164.613 172.794C164.613 173.575 164.051 174.014 163.363 173.771C162.676 173.527 157.946 172.268 152.853 170.974C146.619 169.389 143.923 168.29 144.603 167.61C146.096 166.117 145.829 164 144.148 164C143.343 164 142.226 164.854 141.667 165.899C140.775 167.566 140.163 167.673 136.632 166.777L132.613 165.757V148.378C132.613 138.82 132.951 131.005 133.363 131.012C133.775 131.019 139.477 133.028 146.032 135.477ZM97.6019 141.25C95.4669 144.752 95.0529 147 96.5449 147C97.8579 147 101.613 141.514 101.613 139.596C101.613 136.991 99.7229 137.771 97.6019 141.25ZM177.613 140.5C177.613 141.583 178.724 142 181.613 142C184.502 142 185.613 141.583 185.613 140.5C185.613 139.417 184.502 139 181.613 139C178.724 139 177.613 139.417 177.613 140.5ZM248.613 143.523C248.613 145.133 256.373 147.837 263.346 148.656C269.513 149.381 270.851 147.457 264.863 146.476C262.801 146.138 258.301 145.045 254.863 144.047C250.033 142.646 248.613 142.526 248.613 143.523ZM154.055 146.909C151.309 151.057 151.393 153.265 154.228 151.465C156.958 149.731 159.186 145.173 157.921 143.908C157.079 143.066 156.09 143.834 154.055 146.909ZM95.1649 148.915C94.4109 150.135 99.4089 156 101.202 156C103.283 156 102.932 154.532 100.024 151.077C97.3409 147.888 96.1329 147.35 95.1649 148.915ZM147.681 156.904C145.556 159.889 144.943 163 146.48 163C147.699 163 152.63 155.35 151.888 154.609C150.741 153.461 149.747 154.003 147.681 156.904ZM103.613 158.195C103.613 159.838 108.686 165 110.3 165C112.412 165 111.838 163.611 108.315 160.196C104.794 156.783 103.613 156.281 103.613 158.195ZM39.6459 173.25C39.6819 174.587 43.0409 179 44.0229 179C45.3629 179 44.4799 175.19 42.7839 173.655C40.6019 171.68 39.6009 171.551 39.6459 173.25ZM35.6129 175.826C35.6129 176.797 39.9299 181 40.9269 181C42.2899 181 41.5719 178.273 39.7839 176.655C37.8409 174.896 35.6129 174.453 35.6129 175.826ZM23.6129 186.5C23.6129 190.535 22.2459 190.943 18.9859 187.88L16.7289 185.761L14.6749 189.13C11.6299 194.125 11.9769 195 17.0059 195C19.9879 195 21.5839 195.482 21.9749 196.5C22.2909 197.325 23.4639 198 24.5819 198C26.1299 198 26.6139 197.347 26.6159 195.25C26.6179 193.309 27.4999 191.911 29.6129 190.5C33.3569 187.999 33.3759 186.882 29.7089 184.716C25.1319 182.012 23.6129 182.457 23.6129 186.5ZM92.1129 193.012C103.663 196.366 113.832 199.32 114.712 199.575C116.129 199.986 116.163 200.607 115.008 205.058C113.578 210.57 113.937 212.649 116.455 213.453C117.702 213.852 118.114 215.205 118.119 218.917C118.127 226.6 123.642 231.473 129.557 229.023C132.466 227.818 134.613 224.362 134.613 220.886C134.613 219.438 135.109 219.007 136.363 219.363C139.59 220.282 152.951 222.979 174.113 226.984C185.663 229.17 199.5 231.939 204.863 233.137C214.366 235.261 214.613 235.388 214.613 238.126C214.613 240.778 214.151 241.074 206.363 243.413C196.208 246.463 188.626 248.344 177.74 250.513C169.775 252.101 169.203 252.094 166.019 250.379C163.109 248.812 162.211 248.744 159.14 249.854C156.184 250.923 154.265 250.865 147.361 249.496C133.503 246.749 109.908 241.092 94.1289 236.732C80.3319 232.92 78.8499 232.283 75.4199 228.677C72.3449 225.444 71.2079 224.857 68.9039 225.31C67.3689 225.612 65.2759 226.003 64.2539 226.179C61.0489 226.732 58.3419 221.912 58.3969 215.752C58.4589 208.858 59.9219 203.459 64.3629 193.73C67.0109 187.929 68.3159 186.08 69.5109 186.436C70.3919 186.699 80.5629 189.658 92.1129 193.012ZM0.148878 190.885C-0.584122 193.197 1.55088 198.203 3.03488 197.651C3.62788 197.43 3.93288 196.631 3.71388 195.875C3.49388 195.119 3.10588 193.262 2.84988 191.75C2.31388 188.572 1.01588 188.156 0.148878 190.885ZM4.61288 192.441C4.61288 195.483 6.02988 197.917 7.14888 196.798C7.87988 196.067 6.36988 189 5.48188 189C5.00388 189 4.61288 190.548 4.61288 192.441ZM256.935 193.452C255.968 195.48 254.432 197.026 253.211 197.202C250.113 197.647 249.996 200.762 253.025 202.142C254.758 202.932 255.782 204.386 256.21 206.664C257.028 211.025 257.617 211.284 261.434 208.963C265.279 206.624 265.515 204.294 262.04 202.972C258.818 201.747 259.154 198.834 262.618 197.955C265.487 197.228 265.41 195.515 262.364 192.25C259.557 189.242 258.87 189.394 256.935 193.452ZM31.6129 231.353C31.6129 232.915 42.5399 237 46.7179 237C49.6049 237 48.9769 235.118 45.8629 234.436C42.9839 233.805 36.3529 231.717 33.3629 230.499C32.1379 230 31.6129 230.256 31.6129 231.353ZM165.613 235.282C165.613 236.223 167.004 237.029 169.363 237.457C171.426 237.831 174.125 238.38 175.363 238.677C176.934 239.054 177.613 238.766 177.613 237.722C177.613 236.711 176.116 236.003 172.985 235.533C170.44 235.151 167.74 234.602 166.985 234.313C166.199 234.011 165.613 234.425 165.613 235.282ZM142.613 235.765C142.613 236.848 159.58 240.862 160.164 239.917C160.845 238.816 159.198 237.975 153.274 236.398C147.568 234.879 142.613 234.584 142.613 235.765ZM251.175 238.9C250.384 240.179 251.304 240.635 256.363 241.473C259.065 241.92 260.613 241.801 260.613 241.147C260.613 239.784 259.81 239.388 255.441 238.601C253.393 238.231 251.506 238.364 251.175 238.9ZM244.613 243.5C244.613 244.393 245.532 245 246.885 245C248.134 245 252.297 245.873 256.135 246.94C260.294 248.097 263.482 248.516 264.026 247.977C265.167 246.849 261.22 245.276 252.613 243.429C244.507 241.69 244.613 241.689 244.613 243.5ZM41.6129 250.39C41.6129 252.235 57.4139 256.599 58.8589 255.154C59.5369 254.476 58.5959 253.803 55.9899 253.101C53.8579 252.526 49.8629 251.373 47.1129 250.539C44.3629 249.704 42.0009 249.017 41.8629 249.011C41.7249 249.005 41.6129 249.626 41.6129 250.39ZM93.8359 251.169C94.2409 252.385 98.7909 254.221 104.517 255.479C110.411 256.773 107.555 253.752 101.043 251.802C94.0069 249.696 93.3249 249.636 93.8359 251.169ZM73.8289 254.149C74.3689 255.769 84.7169 258.296 85.9129 257.1C86.5109 256.502 84.9019 255.569 81.5559 254.576C75.2509 252.703 73.3119 252.596 73.8289 254.149ZM213.613 260.933C213.613 262.018 214.473 262.293 224.917 264.543C232.036 266.077 234.964 266.017 233.318 264.372C232.55 263.604 217.798 260.019 215.363 260.008C214.4 260.004 213.613 260.42 213.613 260.933ZM183.613 280.184C183.613 281.279 202.365 289.5 204.863 289.5C209.033 289.5 196.186 282.856 185.389 279.429C184.3 279.083 183.613 279.376 183.613 280.184ZM206.613 282.927C206.613 283.963 217.081 289 219.234 289C222.237 289 220.324 287.143 214.738 284.637C208.485 281.83 206.613 281.436 206.613 282.927Z" fill="#4E5157"/>
<path fill-rule="evenodd" clip-rule="evenodd" d="M184.147 1.75C184.559 2.713 185.108 4.738 185.368 6.25C185.639 7.829 186.484 9 187.351 9C188.514 9 188.717 8.272 188.232 5.845C187.549 2.429 185.95 0 184.384 0C183.827 0 183.725 0.762 184.147 1.75ZM179.613 1.941C179.613 2.459 180.063 3.16 180.613 3.5C181.163 3.84 181.613 5.441 181.613 7.059C181.613 10.342 183.156 11.015 184.071 8.132C184.883 5.573 183.003 1 181.138 1C180.299 1 179.613 1.423 179.613 1.941ZM170.224 7.722C169.827 8.12 167.389 8.457 164.807 8.472C160.352 8.499 160.096 8.651 159.775 11.469C159.59 13.101 158.577 15.646 157.525 17.123C154.816 20.928 155.098 21.765 159.538 23.096C165.427 24.86 166.939 23.887 166.092 18.877L165.396 14.759L168.579 16.63C171.7 18.464 171.789 18.462 173.187 16.559C173.971 15.491 174.613 12.904 174.613 10.809C174.613 7.782 174.237 7 172.78 7C171.771 7 170.621 7.325 170.224 7.722ZM172.543 10.75C172.504 11.163 172.159 12.291 171.777 13.258C171.122 14.913 170.94 14.918 168.676 13.331C166.396 11.735 166.371 11.607 168.192 10.894C170.753 9.89 172.629 9.828 172.543 10.75ZM139.588 17.565C138.343 20.841 138.357 22.654 139.648 25.066C141.426 28.388 142.146 27.216 142.146 21C142.146 14.631 141.191 13.348 139.588 17.565ZM163.543 19.75C163.581 20.438 162.713 21 161.613 21C159.314 21 159.088 19.813 160.851 16.99C161.996 15.157 162.142 15.139 162.781 16.754C163.161 17.714 163.504 19.063 163.543 19.75ZM144.022 20.507C143.627 22.078 144.002 23.945 145.026 25.507C146.902 28.371 149.235 28.941 148.068 26.25C147.65 25.288 147.103 23.038 146.851 21.25C146.307 17.38 144.899 17.01 144.022 20.507ZM98.8579 28.236C99.0849 28.915 101.177 29.797 103.507 30.195C111.531 31.565 116.617 36.145 122.07 46.911C126.384 55.43 132.155 81 129.764 81C127.436 81 95.9329 85.411 75.6939 88.57C59.1199 91.157 53.0869 91.767 52.5549 90.907C52.1599 90.267 51.5399 87.507 51.1769 84.773C49.6429 73.204 43.1919 57.007 37.5679 50.602C32.1209 44.398 21.1939 42.185 17.5699 46.552C16.4799 47.865 17.0059 47.971 21.7929 47.409C28.1709 46.659 31.8669 48.136 36.0489 53.107C42.6819 60.989 46.3179 71.89 50.6039 96.737C52.2889 106.507 56.4809 130.056 59.9199 149.068L66.1719 183.636L62.4479 191.568C55.4999 206.369 53.8339 219.819 58.2229 225.666C59.4899 227.353 62.9169 229.143 68.6129 231.092C73.2879 232.692 78.0129 234.451 79.1129 235.002C82.0059 236.451 111.544 244.181 130.345 248.409C158.534 254.748 167.6 255.272 185.078 251.57C205.073 247.335 222.613 240.962 222.613 237.931C222.613 237.438 220.343 235.883 217.569 234.477C213.803 232.569 202.076 229.874 171.319 223.849C115.93 212.998 115.958 213.007 117.127 206.779C117.478 204.904 118.096 202.837 118.498 202.186C119.035 201.317 125.077 202.478 141.172 206.543C173.599 214.732 170.34 214.833 206.61 204.515C223.383 199.744 237.265 195.682 237.458 195.488C237.652 195.294 238.407 181.043 239.137 163.818C240.368 134.763 240.343 132.404 238.789 131.166C235.418 128.483 214.176 118.215 174.113 99.902L133.113 81.162L132.362 74.331C131.343 65.056 127.193 50.868 123.44 43.827C118.046 33.707 109.045 27.025 100.78 27.006C99.3699 27.002 98.6089 27.489 98.8579 28.236ZM104.985 52.344C105.411 54.042 104.889 55.332 103.093 57.019C100.242 59.697 99.7269 65.019 102.125 67.01C103.233 67.929 103.349 68.613 102.561 69.563C100.042 72.598 110.458 74.353 114.172 71.519C115.734 70.327 115.849 69.864 114.76 69.146C113.721 68.462 113.663 67.775 114.51 66.193C115.117 65.059 115.613 62.977 115.613 61.566C115.613 59.952 116.169 59 117.113 59C120.195 59 118.458 57.373 114.144 56.22C111.346 55.471 109.06 54.085 108.029 52.512C105.957 49.349 104.209 49.253 104.985 52.344ZM72.4849 56.655C70.6239 58.899 65.0819 61.117 63.1689 60.383C62.1589 59.995 61.6129 60.35 61.6129 61.393C61.6129 62.44 62.4829 63 64.1129 63C66.0479 63 66.6129 63.515 66.6129 65.277C66.6129 66.53 67.2929 68.526 68.1239 69.712C69.1339 71.154 69.2839 72.085 68.5749 72.523C66.2889 73.936 69.8729 76 74.6129 76C79.3419 76 82.9359 73.936 80.6589 72.528C79.9449 72.087 79.9289 71.278 80.6099 70.005C82.3189 66.813 81.7729 62.227 79.4239 60.039C78.2209 58.918 76.8709 58 76.4239 58C75.9779 58 75.6129 57.325 75.6129 56.5C75.6129 54.524 74.1939 54.594 72.4849 56.655ZM106.261 60.559C106.342 61.966 107.131 63.915 108.013 64.89C110.091 67.185 109.066 68.164 106.032 66.781C103.116 65.452 102.139 62.754 103.593 60.038C105.07 57.278 106.083 57.476 106.261 60.559ZM74.6279 68.518C76.3309 70.57 75.2739 71.424 72.7219 70.058C69.3239 68.24 68.4709 65.648 70.3749 62.93L72.0409 60.55L72.6999 63.769C73.0619 65.539 73.9289 67.676 74.6279 68.518ZM89.1699 70.223C87.2069 73.024 87.1869 75.402 89.1129 77C90.3979 78.066 90.6129 77.741 90.6129 74.729C90.6129 70.129 92.9189 69.215 96.2139 72.51C99.2129 75.509 99.6129 75.573 99.6129 73.057C99.6129 70.722 96.0249 68 92.9469 68C91.7259 68 90.0259 69 89.1699 70.223ZM130.583 93.75C130.56 100.863 130.276 103.027 129.533 101.75C128.091 99.275 125.935 99.579 124.001 102.531C122.119 105.403 122.863 106.924 125.408 105.411C126.346 104.853 127.9 104.566 128.863 104.772C130.401 105.101 130.613 106.48 130.613 116.157C130.613 122.212 130.27 127.017 129.851 126.833C129.432 126.65 125.858 125.233 121.908 123.684C116.435 121.538 114.867 120.5 115.32 119.322C115.806 118.055 115.361 117.896 112.861 118.445C110.438 118.978 106.183 117.652 92.2009 112.007C72.9539 104.237 59.1479 98.011 56.2649 95.8C54.6239 94.542 57.2039 93.963 79.2649 90.637C113.819 85.428 122.542 84.231 126.863 84.107L130.613 84L130.583 93.75ZM164.113 97.981C195.468 112.157 236.136 131.811 235.477 132.469C234.815 133.132 198.607 142 196.565 142C195.571 142 194.894 141.301 194.974 140.358C195.218 137.472 192.85 137.79 191.02 140.889C188.826 144.603 183.472 145.78 177.01 143.971C173.064 142.866 172.781 142.598 174.352 141.449C175.319 140.742 175.886 139.959 175.611 139.71C174.492 138.691 165.613 137.923 165.613 138.845C165.613 140.447 161.938 138.975 159.525 136.406C157.209 133.941 155.039 133.298 154.446 134.903C154.263 135.399 149.275 133.996 143.363 131.784L132.613 127.762V119.226C132.613 111.02 132.684 110.754 134.442 112.345C136.246 113.978 138.613 114.573 138.613 113.394C138.613 113.061 137.246 111.062 135.576 108.953L132.539 105.118L135.819 106.059C140.122 107.293 140.613 107.252 140.613 105.658C140.613 104.92 138.813 103.777 136.613 103.118C132.878 101.999 132.614 101.674 132.622 98.21C132.626 96.169 132.912 92.154 133.257 89.287C133.784 84.9 134.139 84.209 135.498 84.924C136.386 85.391 149.263 91.267 164.113 97.981ZM234.947 98.234C233.955 99.797 229.613 109.049 229.613 109.599C229.613 109.82 230.288 110 231.113 110C231.938 110 232.613 109.831 232.613 109.624C232.613 109.418 233.724 106.736 235.083 103.665C236.441 100.593 237.147 97.83 236.652 97.524C236.156 97.218 235.389 97.537 234.947 98.234ZM65.7399 103.452C71.9949 106.451 84.3129 111.82 93.1129 115.382C107.091 121.041 109.073 122.122 108.8 123.93C108.438 126.327 111.056 126.812 112.313 124.58C112.975 123.406 114.584 123.728 121.613 126.439L130.113 129.717L130.385 147.704L130.657 165.691L124.098 167.467C118.044 169.105 117.4 169.117 115.747 167.621C112.726 164.888 109.982 165.969 112.796 168.783C113.447 169.434 113.785 170.113 113.546 170.292C112.863 170.805 69.1429 182.788 68.8559 182.54C68.5829 182.306 53.6169 100.028 53.6139 98.75C53.6119 97.629 53.5109 97.59 65.7399 103.452ZM248.849 107.045C243.087 111.707 241.319 114 243.486 114C244.589 114 256.998 104.148 257.446 102.916C258.275 100.638 254.565 102.42 248.849 107.045ZM142.836 107.169C143.304 108.574 150.476 111.203 151.728 110.429C153.413 109.388 152.599 108.191 149.464 107.098C145.358 105.667 142.346 105.699 142.836 107.169ZM118.228 110.26C115.384 113.989 114.904 116.004 116.863 115.993C118.863 115.982 123.118 109.105 121.886 107.873C121.163 107.15 120.043 107.881 118.228 110.26ZM154.763 110.541C155.142 112.51 160.814 114.521 163.298 113.567C165.342 112.783 164.141 111.356 160.884 110.699C159.36 110.392 157.28 109.818 156.262 109.424C154.821 108.867 154.488 109.115 154.763 110.541ZM166.224 113.821C165.64 114.766 171.728 119 173.67 119C174.973 119 174.849 117.692 173.363 115.746C171.84 113.753 167.062 112.464 166.224 113.821ZM139.12 115.988C138.51 116.975 143.494 124 144.804 124C146.788 124 146.404 121.632 143.915 118.512C140.967 114.817 140.12 114.371 139.12 115.988ZM261.863 121.273C257.41 122.508 254.613 123.808 254.613 124.642C254.613 126.406 254.817 126.386 263.442 123.744C267.473 122.51 270.769 121.061 270.767 120.525C270.761 119.018 269.66 119.11 261.863 121.273ZM175.613 121.04C175.613 122.763 179.893 128 181.301 128C184.387 128 184 125.5 179.808 122.687C176.824 119.828 175.613 119.353 175.613 121.04ZM147.153 124.935C146.411 126.136 151.051 133 152.605 133C155.056 133 154.494 130.415 151.364 127.285C149.046 124.966 147.624 124.173 147.153 124.935ZM103.7 131.577C101.773 134.844 101.661 137.019 103.422 136.988C104.306 136.972 108.613 130.356 108.613 129.014C108.613 126.708 105.666 128.246 103.7 131.577ZM183.613 130.195C183.613 131.838 188.686 137 190.3 137C192.156 137 191.964 136.326 188.994 132.433C186.406 129.04 183.613 127.878 183.613 130.195ZM146.032 135.477C152.588 137.926 158.28 140.461 158.681 141.11C159.083 141.76 160.019 142.066 160.762 141.79C161.505 141.514 165.938 142.706 170.613 144.438L179.113 147.589L178.784 151.544C178.577 154.04 177.377 156.863 175.534 159.191C171.415 164.396 171.672 167.023 175.931 163.25C177.883 161.521 177.9 161.587 177.308 168.868C176.979 172.921 176.53 176.416 176.311 176.635C176.092 176.855 173.632 176.507 170.844 175.864L165.776 174.694L169.186 171.097C172.8 167.284 173.362 166 171.418 166C169.719 166 164.613 171.098 164.613 172.794C164.613 173.575 164.051 174.014 163.363 173.771C162.676 173.527 157.946 172.268 152.853 170.974C146.619 169.389 143.923 168.29 144.603 167.61C146.096 166.117 145.829 164 144.148 164C143.343 164 142.226 164.854 141.667 165.899C140.775 167.566 140.163 167.673 136.632 166.777L132.613 165.757V148.378C132.613 138.82 132.951 131.005 133.363 131.012C133.775 131.019 139.477 133.028 146.032 135.477ZM97.6019 141.25C95.4669 144.752 95.0529 147 96.5449 147C97.8579 147 101.613 141.514 101.613 139.596C101.613 136.991 99.7229 137.771 97.6019 141.25ZM177.613 140.5C177.613 141.583 178.724 142 181.613 142C184.502 142 185.613 141.583 185.613 140.5C185.613 139.417 184.502 139 181.613 139C178.724 139 177.613 139.417 177.613 140.5ZM248.613 143.523C248.613 145.133 256.373 147.837 263.346 148.656C269.513 149.381 270.851 147.457 264.863 146.476C262.801 146.138 258.301 145.045 254.863 144.047C250.033 142.646 248.613 142.526 248.613 143.523ZM154.055 146.909C151.309 151.057 151.393 153.265 154.228 151.465C156.958 149.731 159.186 145.173 157.921 143.908C157.079 143.066 156.09 143.834 154.055 146.909ZM95.1649 148.915C94.4109 150.135 99.4089 156 101.202 156C103.283 156 102.932 154.532 100.024 151.077C97.3409 147.888 96.1329 147.35 95.1649 148.915ZM147.681 156.904C145.556 159.889 144.943 163 146.48 163C147.699 163 152.63 155.35 151.888 154.609C150.741 153.461 149.747 154.003 147.681 156.904ZM103.613 158.195C103.613 159.838 108.686 165 110.3 165C112.412 165 111.838 163.611 108.315 160.196C104.794 156.783 103.613 156.281 103.613 158.195ZM39.6459 173.25C39.6819 174.587 43.0409 179 44.0229 179C45.3629 179 44.4799 175.19 42.7839 173.655C40.6019 171.68 39.6009 171.551 39.6459 173.25ZM35.6129 175.826C35.6129 176.797 39.9299 181 40.9269 181C42.2899 181 41.5719 178.273 39.7839 176.655C37.8409 174.896 35.6129 174.453 35.6129 175.826ZM23.6129 186.5C23.6129 190.535 22.2459 190.943 18.9859 187.88L16.7289 185.761L14.6749 189.13C11.6299 194.125 11.9769 195 17.0059 195C19.9879 195 21.5839 195.482 21.9749 196.5C22.2909 197.325 23.4639 198 24.5819 198C26.1299 198 26.6139 197.347 26.6159 195.25C26.6179 193.309 27.4999 191.911 29.6129 190.5C33.3569 187.999 33.3759 186.882 29.7089 184.716C25.1319 182.012 23.6129 182.457 23.6129 186.5ZM92.1129 193.012C103.663 196.366 113.87 199.331 114.795 199.601C116.128 199.99 116.301 200.653 115.628 202.796C114.047 207.827 113.693 210.512 114.449 211.734C115.185 212.925 133.176 218.682 143.113 220.907C145.863 221.523 160.713 224.469 176.113 227.454C220.612 236.079 222.144 236.484 219.277 238.864C217.064 240.7 195.914 246.679 179.693 250.053L165.273 253.053L152.193 250.458C122.851 244.639 72.3619 231.623 65.6819 228.156C56.1689 223.219 55.7609 212.574 64.3629 193.73C67.0109 187.929 68.3159 186.08 69.5109 186.436C70.3919 186.699 80.5629 189.658 92.1129 193.012ZM0.148878 190.885C-0.584122 193.197 1.55088 198.203 3.03488 197.651C3.62788 197.43 3.93288 196.631 3.71388 195.875C3.49388 195.119 3.10588 193.262 2.84988 191.75C2.31388 188.572 1.01588 188.156 0.148878 190.885ZM4.61288 192.441C4.61288 195.483 6.02988 197.917 7.14888 196.798C7.87988 196.067 6.36988 189 5.48188 189C5.00388 189 4.61288 190.548 4.61288 192.441ZM256.935 193.452C255.968 195.48 254.432 197.026 253.211 197.202C250.113 197.647 249.996 200.762 253.025 202.142C254.758 202.932 255.782 204.386 256.21 206.664C257.028 211.025 257.617 211.284 261.434 208.963C265.279 206.624 265.515 204.294 262.04 202.972C258.818 201.747 259.154 198.834 262.618 197.955C265.487 197.228 265.41 195.515 262.364 192.25C259.557 189.242 258.87 189.394 256.935 193.452ZM31.6129 231.353C31.6129 232.915 42.5399 237 46.7179 237C49.6049 237 48.9769 235.118 45.8629 234.436C42.9839 233.805 36.3529 231.717 33.3629 230.499C32.1379 230 31.6129 230.256 31.6129 231.353ZM165.613 235.282C165.613 236.223 167.004 237.029 169.363 237.457C171.426 237.831 174.125 238.38 175.363 238.677C176.934 239.054 177.613 238.766 177.613 237.722C177.613 236.711 176.116 236.003 172.985 235.533C170.44 235.151 167.74 234.602 166.985 234.313C166.199 234.011 165.613 234.425 165.613 235.282ZM142.613 235.765C142.613 236.848 159.58 240.862 160.164 239.917C160.845 238.816 159.198 237.975 153.274 236.398C147.568 234.879 142.613 234.584 142.613 235.765ZM251.175 238.9C250.384 240.179 251.304 240.635 256.363 241.473C259.065 241.92 260.613 241.801 260.613 241.147C260.613 239.784 259.81 239.388 255.441 238.601C253.393 238.231 251.506 238.364 251.175 238.9ZM244.613 243.5C244.613 244.393 245.532 245 246.885 245C248.134 245 252.297 245.873 256.135 246.94C260.294 248.097 263.482 248.516 264.026 247.977C265.167 246.849 261.22 245.276 252.613 243.429C244.507 241.69 244.613 241.689 244.613 243.5ZM41.6129 250.39C41.6129 252.235 57.4139 256.599 58.8589 255.154C59.5369 254.476 58.5959 253.803 55.9899 253.101C53.8579 252.526 49.8629 251.373 47.1129 250.539C44.3629 249.704 42.0009 249.017 41.8629 249.011C41.7249 249.005 41.6129 249.626 41.6129 250.39ZM93.8359 251.169C94.2409 252.385 98.7909 254.221 104.517 255.479C110.411 256.773 107.555 253.752 101.043 251.802C94.0069 249.696 93.3249 249.636 93.8359 251.169ZM73.8289 254.149C74.3689 255.769 84.7169 258.296 85.9129 257.1C86.5109 256.502 84.9019 255.569 81.5559 254.576C75.2509 252.703 73.3119 252.596 73.8289 254.149ZM213.613 260.933C213.613 262.018 214.473 262.293 224.917 264.543C232.036 266.077 234.964 266.017 233.318 264.372C232.55 263.604 217.798 260.019 215.363 260.008C214.4 260.004 213.613 260.42 213.613 260.933ZM183.613 280.184C183.613 281.279 202.365 289.5 204.863 289.5C209.033 289.5 196.186 282.856 185.389 279.429C184.3 279.083 183.613 279.376 183.613 280.184ZM206.613 282.927C206.613 283.963 217.081 289 219.234 289C222.237 289 220.324 287.143 214.738 284.637C208.485 281.83 206.613 281.436 206.613 282.927Z" fill="#DFE2E5"/>
<path fill-rule="evenodd" clip-rule="evenodd" d="M184.147 1.75C184.559 2.713 185.108 4.738 185.368 6.25C185.639 7.829 186.484 9 187.351 9C188.514 9 188.717 8.272 188.232 5.845C187.549 2.429 185.95 0 184.384 0C183.827 0 183.725 0.762 184.147 1.75ZM179.613 1.941C179.613 2.459 180.063 3.16 180.613 3.5C181.163 3.84 181.613 5.441 181.613 7.059C181.613 10.342 183.156 11.015 184.071 8.132C184.883 5.573 183.003 1 181.138 1C180.299 1 179.613 1.423 179.613 1.941ZM170.224 7.722C169.827 8.12 167.389 8.457 164.807 8.472C160.455 8.498 160.109 8.687 160.062 11.066C160.035 12.477 159.022 15.021 157.812 16.72C154.798 20.954 155.01 21.739 159.538 23.096C165.427 24.86 166.939 23.887 166.092 18.877L165.396 14.759L168.579 16.63C171.7 18.464 171.789 18.462 173.187 16.559C173.971 15.491 174.613 12.904 174.613 10.809C174.613 7.782 174.237 7 172.78 7C171.771 7 170.621 7.325 170.224 7.722ZM172.543 10.75C172.504 11.163 172.159 12.291 171.777 13.258C171.122 14.913 170.94 14.918 168.676 13.331C166.396 11.735 166.371 11.607 168.192 10.894C170.753 9.89 172.629 9.828 172.543 10.75ZM139.588 17.565C138.343 20.841 138.357 22.654 139.648 25.066C141.426 28.388 142.146 27.216 142.146 21C142.146 14.631 141.191 13.348 139.588 17.565ZM163.543 19.75C163.581 20.438 162.713 21 161.613 21C159.314 21 159.088 19.813 160.851 16.99C161.996 15.157 162.142 15.139 162.781 16.754C163.161 17.714 163.504 19.063 163.543 19.75ZM144.022 20.507C143.627 22.078 144.002 23.945 145.026 25.507C146.902 28.371 149.235 28.941 148.068 26.25C147.65 25.288 147.103 23.038 146.851 21.25C146.307 17.38 144.899 17.01 144.022 20.507ZM98.8579 28.236C99.0849 28.915 101.177 29.797 103.507 30.195C111.531 31.565 116.617 36.145 122.07 46.911C126.384 55.43 132.155 81 129.764 81C127.436 81 95.9329 85.411 75.6939 88.57C59.1199 91.157 53.0869 91.767 52.5549 90.907C52.1599 90.267 51.5399 87.507 51.1769 84.773C49.6429 73.204 43.1919 57.007 37.5679 50.602C32.1209 44.398 21.1939 42.185 17.5699 46.552C16.4799 47.865 17.0059 47.971 21.7929 47.409C28.1709 46.659 31.8669 48.136 36.0489 53.107C42.6819 60.989 46.3179 71.89 50.6039 96.737C52.2889 106.507 56.4809 130.056 59.9199 149.068L66.1719 183.636L62.4479 191.568C55.4999 206.369 53.8339 219.819 58.2229 225.666C59.4899 227.353 62.9169 229.143 68.6129 231.092C73.2879 232.692 78.0129 234.451 79.1129 235.002C82.0059 236.451 111.544 244.181 130.345 248.409C158.534 254.748 167.6 255.272 185.078 251.57C205.073 247.335 222.613 240.962 222.613 237.931C222.613 237.438 220.343 235.883 217.569 234.477C213.803 232.569 202.076 229.874 171.319 223.849C115.93 212.998 115.958 213.007 117.127 206.779C117.478 204.904 118.096 202.837 118.498 202.186C119.035 201.317 125.077 202.478 141.172 206.543C173.599 214.732 170.34 214.833 206.61 204.515C223.383 199.744 237.265 195.682 237.458 195.488C237.652 195.294 238.407 181.043 239.137 163.818C240.368 134.763 240.343 132.404 238.789 131.166C235.418 128.483 214.176 118.215 174.113 99.902L133.113 81.162L132.362 74.331C131.343 65.056 127.193 50.868 123.44 43.827C118.046 33.707 109.045 27.025 100.78 27.006C99.3699 27.002 98.6089 27.489 98.8579 28.236ZM104.985 52.344C105.411 54.042 104.889 55.332 103.093 57.019C100.242 59.697 99.7269 65.019 102.125 67.01C103.233 67.929 103.349 68.613 102.561 69.563C100.042 72.598 110.458 74.353 114.172 71.519C115.734 70.327 115.849 69.864 114.76 69.146C113.721 68.462 113.663 67.775 114.51 66.193C115.117 65.059 115.613 62.977 115.613 61.566C115.613 59.952 116.169 59 117.113 59C120.195 59 118.458 57.373 114.144 56.22C111.346 55.471 109.06 54.085 108.029 52.512C105.957 49.349 104.209 49.253 104.985 52.344ZM72.4849 56.655C70.6239 58.899 65.0819 61.117 63.1689 60.383C62.1589 59.995 61.6129 60.35 61.6129 61.393C61.6129 62.44 62.4829 63 64.1129 63C66.0479 63 66.6129 63.515 66.6129 65.277C66.6129 66.53 67.2929 68.526 68.1239 69.712C69.1339 71.154 69.2839 72.085 68.5749 72.523C66.2889 73.936 69.8729 76 74.6129 76C79.3419 76 82.9359 73.936 80.6589 72.528C79.9449 72.087 79.9289 71.278 80.6099 70.005C82.3189 66.813 81.7729 62.227 79.4239 60.039C78.2209 58.918 76.8709 58 76.4239 58C75.9779 58 75.6129 57.325 75.6129 56.5C75.6129 54.524 74.1939 54.594 72.4849 56.655ZM106.261 60.559C106.342 61.966 107.131 63.915 108.013 64.89C110.091 67.185 109.066 68.164 106.032 66.781C103.116 65.452 102.139 62.754 103.593 60.038C105.07 57.278 106.083 57.476 106.261 60.559ZM74.6279 68.518C76.3309 70.57 75.2739 71.424 72.7219 70.058C69.3239 68.24 68.4709 65.648 70.3749 62.93L72.0409 60.55L72.6999 63.769C73.0619 65.539 73.9289 67.676 74.6279 68.518ZM89.1699 70.223C87.2069 73.024 87.1869 75.402 89.1129 77C90.3979 78.066 90.6129 77.741 90.6129 74.729C90.6129 70.129 92.9189 69.215 96.2139 72.51C99.2129 75.509 99.6129 75.573 99.6129 73.057C99.6129 70.722 96.0249 68 92.9469 68C91.7259 68 90.0259 69 89.1699 70.223ZM130.613 105.583C130.613 117.454 130.27 127.017 129.851 126.833C129.432 126.65 125.72 125.226 121.601 123.67C117.483 122.113 113.213 120.446 112.113 119.966C111.013 119.485 102.121 115.898 92.3529 111.995C73.2209 104.351 59.2239 98.07 56.2649 95.8C54.6239 94.542 57.2039 93.963 79.2649 90.637C113.819 85.428 122.542 84.231 126.863 84.107L130.613 84V105.583ZM164.113 97.981C192.48 110.806 235.613 131.528 235.613 132.331C235.613 132.59 226.951 134.879 216.363 137.417C205.775 139.955 195.763 142.445 194.113 142.949C192.463 143.454 188.638 144.151 185.613 144.499C179.779 145.169 174.375 143.553 143.863 132.015L132.613 127.761L132.467 118.13C132.274 105.385 132.414 99.951 133.16 91.26C133.705 84.919 133.989 84.129 135.447 84.897C136.363 85.379 149.263 91.267 164.113 97.981ZM234.947 98.234C233.955 99.797 229.613 109.049 229.613 109.599C229.613 109.82 230.288 110 231.113 110C231.938 110 232.613 109.831 232.613 109.624C232.613 109.418 233.724 106.736 235.083 103.665C236.441 100.593 237.147 97.83 236.652 97.524C236.156 97.218 235.389 97.537 234.947 98.234ZM66.7189 103.891C73.5359 107.131 86.3129 112.596 95.1129 116.034C103.913 119.472 112.013 122.658 113.113 123.113C114.213 123.568 118.488 125.253 122.613 126.858L130.113 129.775L130.385 147.733L130.657 165.691L124.135 167.457C117.386 169.283 116.786 169.773 118.813 171.8C120.558 173.545 118.574 173.274 116.613 171.5C115.128 170.156 112.581 170.662 92.0349 176.38C79.4279 179.888 68.9969 182.66 68.8559 182.539C68.5829 182.306 53.6169 100.029 53.6139 98.75C53.6119 97.64 53.3579 97.54 66.7189 103.891ZM248.849 107.045C243.087 111.707 241.319 114 243.486 114C244.589 114 256.998 104.148 257.446 102.916C258.275 100.638 254.565 102.42 248.849 107.045ZM261.863 121.273C257.41 122.508 254.613 123.808 254.613 124.642C254.613 126.406 254.817 126.386 263.442 123.744C267.473 122.51 270.769 121.061 270.767 120.525C270.761 119.018 269.66 119.11 261.863 121.273ZM146.512 135.607C178.53 147.312 179.124 147.568 178.919 149.586C178.812 150.639 178.464 155.325 178.145 160C177.397 170.976 176.548 177.002 175.749 176.993C175.399 176.989 168.451 175.189 160.308 172.993C143.716 168.518 142.784 168.391 141.975 170.5C141.1 172.779 139.605 172.291 139.875 169.815C140.068 168.046 139.398 167.455 136.363 166.715L132.613 165.801V148.401C132.613 138.83 132.905 131 133.262 131C133.618 131 139.581 133.073 146.512 135.607ZM248.613 143.523C248.613 145.133 256.373 147.837 263.346 148.656C269.513 149.381 270.851 147.457 264.863 146.476C262.801 146.138 258.301 145.045 254.863 144.047C250.033 142.646 248.613 142.526 248.613 143.523ZM39.6459 173.25C39.6819 174.587 43.0409 179 44.0229 179C45.3629 179 44.4799 175.19 42.7839 173.655C40.6019 171.68 39.6009 171.551 39.6459 173.25ZM35.6129 175.826C35.6129 176.797 39.9299 181 40.9269 181C42.2899 181 41.5719 178.273 39.7839 176.655C37.8409 174.896 35.6129 174.453 35.6129 175.826ZM126.332 178.294C127.553 179.392 128.291 180.712 127.972 181.227C127.365 182.211 121.613 177.261 121.613 175.754C121.613 174.687 123.38 175.638 126.332 178.294ZM138.008 176.25C137.61 176.938 136.377 178.81 135.267 180.41L133.248 183.321L136.912 182.726C140.942 182.072 142.929 183.414 139.352 184.373C134.817 185.588 132.613 185.108 132.613 182.904C132.613 180.552 136.215 175 137.74 175C138.285 175 138.406 175.563 138.008 176.25ZM162.4 178.195C160.618 180.878 157.942 182.663 157.046 181.766C156.344 181.064 161.5 176.085 162.985 176.032C163.465 176.014 163.201 176.988 162.4 178.195ZM153.07 182.069C152.754 182.581 150.632 183 148.354 183C143.699 183 144.256 181.378 149.113 180.791C152.622 180.367 153.873 180.771 153.07 182.069ZM23.6129 186.5C23.6129 190.535 22.2459 190.943 18.9859 187.88L16.7289 185.761L14.6749 189.13C11.6299 194.125 11.9769 195 17.0059 195C19.9879 195 21.5839 195.482 21.9749 196.5C22.2909 197.325 23.4639 198 24.5819 198C26.1299 198 26.6139 197.347 26.6159 195.25C26.6179 193.309 27.4999 191.911 29.6129 190.5C33.3569 187.999 33.3759 186.882 29.7089 184.716C25.1319 182.012 23.6129 182.457 23.6129 186.5ZM92.1129 193.012C103.663 196.366 113.87 199.331 114.795 199.601C116.128 199.99 116.301 200.653 115.628 202.796C114.047 207.827 113.693 210.512 114.449 211.734C115.185 212.925 133.176 218.682 143.113 220.907C145.863 221.523 160.713 224.469 176.113 227.454C220.612 236.079 222.144 236.484 219.277 238.864C217.064 240.7 195.914 246.679 179.693 250.053L165.273 253.053L152.193 250.458C122.851 244.639 72.3619 231.623 65.6819 228.156C56.1689 223.219 55.7609 212.574 64.3629 193.73C67.0109 187.929 68.3159 186.08 69.5109 186.436C70.3919 186.699 80.5629 189.658 92.1129 193.012ZM0.148878 190.885C-0.584122 193.197 1.55088 198.203 3.03488 197.651C3.62788 197.43 3.93288 196.631 3.71388 195.875C3.49388 195.119 3.10588 193.262 2.84988 191.75C2.31388 188.572 1.01588 188.156 0.148878 190.885ZM4.61288 192.441C4.61288 195.483 6.02988 197.917 7.14888 196.798C7.87988 196.067 6.36988 189 5.48188 189C5.00388 189 4.61288 190.548 4.61288 192.441ZM256.935 193.452C255.968 195.48 254.432 197.026 253.211 197.202C250.113 197.647 249.996 200.762 253.025 202.142C254.758 202.932 255.782 204.386 256.21 206.664C257.028 211.025 257.617 211.284 261.434 208.963C265.279 206.624 265.515 204.294 262.04 202.972C258.818 201.747 259.154 198.834 262.618 197.955C265.487 197.228 265.41 195.515 262.364 192.25C259.557 189.242 258.87 189.394 256.935 193.452ZM31.6129 231.353C31.6129 232.915 42.5399 237 46.7179 237C49.6049 237 48.9769 235.118 45.8629 234.436C42.9839 233.805 36.3529 231.717 33.3629 230.499C32.1379 230 31.6129 230.256 31.6129 231.353ZM165.613 235.282C165.613 236.223 167.004 237.029 169.363 237.457C171.426 237.831 174.125 238.38 175.363 238.677C176.934 239.054 177.613 238.766 177.613 237.722C177.613 236.711 176.116 236.003 172.985 235.533C170.44 235.151 167.74 234.602 166.985 234.313C166.199 234.011 165.613 234.425 165.613 235.282ZM142.613 235.765C142.613 236.848 159.58 240.862 160.164 239.917C160.845 238.816 159.198 237.975 153.274 236.398C147.568 234.879 142.613 234.584 142.613 235.765ZM251.175 238.9C250.384 240.179 251.304 240.635 256.363 241.473C259.065 241.92 260.613 241.801 260.613 241.147C260.613 239.784 259.81 239.388 255.441 238.601C253.393 238.231 251.506 238.364 251.175 238.9ZM244.613 243.5C244.613 244.393 245.532 245 246.885 245C248.134 245 252.297 245.873 256.135 246.94C260.294 248.097 263.482 248.516 264.026 247.977C265.167 246.849 261.22 245.276 252.613 243.429C244.507 241.69 244.613 241.689 244.613 243.5ZM41.6129 250.39C41.6129 252.235 57.4139 256.599 58.8589 255.154C59.5369 254.476 58.5959 253.803 55.9899 253.101C53.8579 252.526 49.8629 251.373 47.1129 250.539C44.3629 249.704 42.0009 249.017 41.8629 249.011C41.7249 249.005 41.6129 249.626 41.6129 250.39ZM93.8359 251.169C94.2409 252.385 98.7909 254.221 104.517 255.479C110.411 256.773 107.555 253.752 101.043 251.802C94.0069 249.696 93.3249 249.636 93.8359 251.169ZM73.8289 254.149C74.3689 255.769 84.7169 258.296 85.9129 257.1C86.5109 256.502 84.9019 255.569 81.5559 254.576C75.2509 252.703 73.3119 252.596 73.8289 254.149ZM213.613 260.933C213.613 262.018 214.473 262.293 224.917 264.543C232.036 266.077 234.964 266.017 233.318 264.372C232.55 263.604 217.798 260.019 215.363 260.008C214.4 260.004 213.613 260.42 213.613 260.933ZM183.613 280.184C183.613 281.279 202.365 289.5 204.863 289.5C209.033 289.5 196.186 282.856 185.389 279.429C184.3 279.083 183.613 279.376 183.613 280.184ZM206.613 282.927C206.613 283.963 217.081 289 219.234 289C222.237 289 220.324 287.143 214.738 284.637C208.485 281.83 206.613 281.436 206.613 282.927Z" fill="#F1FFE2"/>
<path fill-rule="evenodd" clip-rule="evenodd" d="M184.147 1.75C184.559 2.713 185.108 4.738 185.368 6.25C185.639 7.829 186.484 9 187.351 9C188.514 9 188.717 8.272 188.232 5.845C187.549 2.429 185.95 0 184.384 0C183.827 0 183.725 0.762 184.147 1.75ZM179.613 1.941C179.613 2.459 180.063 3.16 180.613 3.5C181.163 3.84 181.613 5.441 181.613 7.059C181.613 10.342 183.156 11.015 184.071 8.132C184.883 5.573 183.003 1 181.138 1C180.299 1 179.613 1.423 179.613 1.941ZM170.224 7.722C169.827 8.12 167.389 8.457 164.807 8.472C160.455 8.498 160.109 8.687 160.062 11.066C160.035 12.477 159.022 15.021 157.812 16.72C154.798 20.954 155.01 21.739 159.538 23.096C165.427 24.86 166.939 23.887 166.092 18.877L165.396 14.759L168.579 16.63C171.7 18.464 171.789 18.462 173.187 16.559C173.971 15.491 174.613 12.904 174.613 10.809C174.613 7.782 174.237 7 172.78 7C171.771 7 170.621 7.325 170.224 7.722ZM172.543 10.75C172.504 11.163 172.159 12.291 171.777 13.258C171.122 14.913 170.94 14.918 168.676 13.331C166.396 11.735 166.371 11.607 168.192 10.894C170.753 9.89 172.629 9.828 172.543 10.75ZM139.588 17.565C138.343 20.841 138.357 22.654 139.648 25.066C141.426 28.388 142.146 27.216 142.146 21C142.146 14.631 141.191 13.348 139.588 17.565ZM163.543 19.75C163.615 21.028 160.446 21.5 159.325 20.378C158.983 20.036 159.47 18.731 160.408 17.478C161.896 15.488 162.199 15.408 162.793 16.849C163.167 17.757 163.504 19.063 163.543 19.75ZM144.022 20.507C143.627 22.078 144.002 23.945 145.026 25.507C146.902 28.371 149.235 28.941 148.068 26.25C147.65 25.288 147.103 23.038 146.851 21.25C146.307 17.38 144.899 17.01 144.022 20.507ZM98.8579 28.236C99.0849 28.915 101.177 29.797 103.507 30.195C111.531 31.565 116.617 36.145 122.07 46.911C126.384 55.43 132.155 81 129.764 81C127.436 81 95.9329 85.411 75.6939 88.57C59.1199 91.157 53.0869 91.767 52.5549 90.907C52.1599 90.267 51.5399 87.507 51.1769 84.773C49.6429 73.204 43.1919 57.007 37.5679 50.602C32.1209 44.398 21.1939 42.185 17.5699 46.552C16.4799 47.865 17.0059 47.971 21.7929 47.409C28.1709 46.659 31.8669 48.136 36.0489 53.107C42.6819 60.989 46.3179 71.89 50.6039 96.737C52.2889 106.507 56.4809 130.056 59.9199 149.068L66.1719 183.636L62.4479 191.568C55.4999 206.369 53.8339 219.819 58.2229 225.666C59.4899 227.353 62.9169 229.143 68.6129 231.092C73.2879 232.692 78.0129 234.451 79.1129 235.002C82.0059 236.451 111.544 244.181 130.345 248.409C158.534 254.748 167.6 255.272 185.078 251.57C205.073 247.335 222.613 240.962 222.613 237.931C222.613 237.438 220.343 235.883 217.569 234.477C213.803 232.569 202.076 229.874 171.319 223.849C115.93 212.998 115.958 213.007 117.127 206.779C117.478 204.904 118.096 202.837 118.498 202.186C119.035 201.317 125.077 202.478 141.172 206.543C173.599 214.732 170.34 214.833 206.61 204.515C223.383 199.744 237.265 195.682 237.458 195.488C237.652 195.294 238.407 181.043 239.137 163.818C240.368 134.763 240.343 132.404 238.789 131.166C235.418 128.483 214.176 118.215 174.113 99.902L133.113 81.162L132.362 74.331C131.343 65.056 127.193 50.868 123.44 43.827C118.046 33.707 109.045 27.025 100.78 27.006C99.3699 27.002 98.6089 27.489 98.8579 28.236ZM104.985 52.344C105.411 54.042 104.889 55.332 103.093 57.019C100.242 59.697 99.7269 65.019 102.125 67.01C103.233 67.929 103.349 68.613 102.561 69.563C100.042 72.598 110.458 74.353 114.172 71.519C115.734 70.327 115.849 69.864 114.76 69.146C113.721 68.462 113.663 67.775 114.51 66.193C115.117 65.059 115.613 62.977 115.613 61.566C115.613 59.952 116.169 59 117.113 59C120.195 59 118.458 57.373 114.144 56.22C111.346 55.471 109.06 54.085 108.029 52.512C105.957 49.349 104.209 49.253 104.985 52.344ZM72.4849 56.655C70.6239 58.899 65.0819 61.117 63.1689 60.383C62.1589 59.995 61.6129 60.35 61.6129 61.393C61.6129 62.44 62.4829 63 64.1129 63C66.0479 63 66.6129 63.515 66.6129 65.277C66.6129 66.53 67.2929 68.526 68.1239 69.712C69.1339 71.154 69.2839 72.085 68.5749 72.523C66.2889 73.936 69.8729 76 74.6129 76C79.3419 76 82.9359 73.936 80.6589 72.528C79.9449 72.087 79.9289 71.278 80.6099 70.005C82.3189 66.813 81.7729 62.227 79.4239 60.039C78.2209 58.918 76.8709 58 76.4239 58C75.9779 58 75.6129 57.325 75.6129 56.5C75.6129 54.524 74.1939 54.594 72.4849 56.655ZM106.261 60.559C106.342 61.966 107.131 63.915 108.013 64.89C110.091 67.185 109.066 68.164 106.032 66.781C103.116 65.452 102.139 62.754 103.593 60.038C105.07 57.278 106.083 57.476 106.261 60.559ZM74.6279 68.518C76.3309 70.57 75.2739 71.424 72.7219 70.058C69.3239 68.24 68.4709 65.648 70.3749 62.93L72.0409 60.55L72.6999 63.769C73.0619 65.539 73.9289 67.676 74.6279 68.518ZM89.1699 70.223C87.2069 73.024 87.1869 75.402 89.1129 77C90.3979 78.066 90.6129 77.741 90.6129 74.729C90.6129 70.129 92.9189 69.215 96.2139 72.51C99.2129 75.509 99.6129 75.573 99.6129 73.057C99.6129 70.722 96.0249 68 92.9469 68C91.7259 68 90.0259 69 89.1699 70.223ZM130.613 105.583C130.613 117.454 130.27 127.017 129.851 126.833C129.432 126.65 125.72 125.226 121.601 123.67C117.483 122.113 113.213 120.446 112.113 119.966C111.013 119.485 102.121 115.898 92.3529 111.995C73.2209 104.351 59.2239 98.07 56.2649 95.8C54.6239 94.542 57.2039 93.963 79.2649 90.637C113.819 85.428 122.542 84.231 126.863 84.107L130.613 84V105.583ZM164.113 97.981C192.48 110.806 235.613 131.528 235.613 132.331C235.613 132.59 226.951 134.879 216.363 137.417C205.775 139.955 195.763 142.445 194.113 142.949C192.463 143.454 188.638 144.151 185.613 144.499C179.779 145.169 174.375 143.553 143.863 132.015L132.613 127.761L132.467 118.13C132.274 105.385 132.414 99.951 133.16 91.26C133.705 84.919 133.989 84.129 135.447 84.897C136.363 85.379 149.263 91.267 164.113 97.981ZM234.947 98.234C232.304 102.398 229.844 109.025 230.737 109.576C232.073 110.402 232.148 110.3 235.049 103.74C236.426 100.627 237.147 97.83 236.652 97.524C236.156 97.218 235.389 97.537 234.947 98.234ZM66.7189 103.891C73.5359 107.131 86.3129 112.596 95.1129 116.034C103.913 119.472 112.013 122.658 113.113 123.113C114.213 123.568 118.488 125.253 122.613 126.858L130.113 129.775L130.385 147.733L130.657 165.691L124.135 167.457C117.386 169.283 116.786 169.773 118.813 171.8C120.558 173.545 118.574 173.274 116.613 171.5C115.128 170.156 112.581 170.662 92.0349 176.38C79.4279 179.888 68.9969 182.66 68.8559 182.539C68.5829 182.306 53.6169 100.029 53.6139 98.75C53.6119 97.64 53.3579 97.54 66.7189 103.891ZM248.849 107.045C243.087 111.707 241.319 114 243.486 114C244.589 114 256.998 104.148 257.446 102.916C258.275 100.638 254.565 102.42 248.849 107.045ZM261.863 121.273C257.347 122.526 254.613 123.803 254.613 124.661C254.613 126.162 255.882 125.978 265.613 123.065C268.638 122.159 271.034 120.998 270.938 120.484C270.665 119.03 269.626 119.12 261.863 121.273ZM146.512 135.61C153.442 138.145 163.388 141.785 168.613 143.698C173.838 145.611 178.389 147.474 178.726 147.838C179.367 148.53 177.006 175.94 176.24 176.707C175.998 176.948 168.979 175.313 160.643 173.073C143.669 168.512 142.784 168.39 141.975 170.5C141.1 172.779 139.605 172.291 139.875 169.815C140.068 168.046 139.398 167.455 136.363 166.715L132.613 165.801V148.401C132.613 138.83 132.905 131 133.262 131C133.618 131 139.581 133.074 146.512 135.61ZM237.596 141.75C237.57 152.004 235.701 193.245 235.242 193.705C234.851 194.095 176.206 210.839 176.022 210.612C175.758 210.286 180.644 156.756 181.318 152.59L182.113 147.68L201.113 143.374C211.563 141.005 223.263 138.192 227.113 137.124C237.999 134.102 237.616 133.932 237.596 141.75ZM248.613 143.523C248.613 145.133 256.373 147.837 263.346 148.656C269.513 149.381 270.851 147.457 264.863 146.476C262.801 146.138 258.301 145.045 254.863 144.047C250.033 142.646 248.613 142.526 248.613 143.523ZM39.6459 173.25C39.6819 174.587 43.0409 179 44.0229 179C45.3629 179 44.4799 175.19 42.7839 173.655C40.6019 171.68 39.6009 171.551 39.6459 173.25ZM35.6129 175.826C35.6129 176.797 39.9299 181 40.9269 181C42.2899 181 41.5719 178.273 39.7839 176.655C37.8409 174.896 35.6129 174.453 35.6129 175.826ZM126.332 178.294C127.553 179.392 128.291 180.712 127.972 181.227C127.365 182.211 121.613 177.261 121.613 175.754C121.613 174.687 123.38 175.638 126.332 178.294ZM138.008 176.25C137.61 176.938 136.377 178.81 135.267 180.41L133.248 183.321L136.912 182.726C140.942 182.072 142.929 183.414 139.352 184.373C134.817 185.588 132.613 185.108 132.613 182.904C132.613 180.552 136.215 175 137.74 175C138.285 175 138.406 175.563 138.008 176.25ZM162.4 178.195C160.618 180.878 157.942 182.663 157.046 181.766C156.344 181.064 161.5 176.085 162.985 176.032C163.465 176.014 163.201 176.988 162.4 178.195ZM153.07 182.069C152.754 182.581 150.632 183 148.354 183C143.699 183 144.256 181.378 149.113 180.791C152.622 180.367 153.873 180.771 153.07 182.069ZM23.6129 186.5C23.6129 190.535 22.2459 190.943 18.9859 187.88L16.7289 185.761L14.6749 189.13C11.6299 194.125 11.9769 195 17.0059 195C19.9879 195 21.5839 195.482 21.9749 196.5C22.2909 197.325 23.4639 198 24.5819 198C26.1299 198 26.6139 197.347 26.6159 195.25C26.6179 193.309 27.4999 191.911 29.6129 190.5C33.3569 187.999 33.3759 186.882 29.7089 184.716C25.1319 182.012 23.6129 182.457 23.6129 186.5ZM92.1129 193.012C103.663 196.366 113.87 199.331 114.795 199.601C116.128 199.99 116.301 200.653 115.628 202.796C114.047 207.827 113.693 210.512 114.449 211.734C115.185 212.925 133.176 218.682 143.113 220.907C145.863 221.523 160.713 224.469 176.113 227.454C220.612 236.079 222.144 236.484 219.277 238.864C217.064 240.7 195.914 246.679 179.693 250.053L165.273 253.053L152.193 250.458C122.851 244.639 72.3619 231.623 65.6819 228.156C56.1689 223.219 55.7609 212.574 64.3629 193.73C67.0109 187.929 68.3159 186.08 69.5109 186.436C70.3919 186.699 80.5629 189.658 92.1129 193.012ZM0.148878 190.885C-0.584122 193.197 1.55088 198.203 3.03488 197.651C3.62788 197.43 3.93288 196.631 3.71388 195.875C3.49388 195.119 3.10588 193.262 2.84988 191.75C2.31388 188.572 1.01588 188.156 0.148878 190.885ZM4.61288 192.441C4.61288 195.483 6.02988 197.917 7.14888 196.798C7.87988 196.067 6.36988 189 5.48188 189C5.00388 189 4.61288 190.548 4.61288 192.441ZM256.935 193.452C255.968 195.48 254.432 197.026 253.211 197.202C250.113 197.647 249.996 200.762 253.025 202.142C254.758 202.932 255.782 204.386 256.21 206.664C257.028 211.025 257.617 211.284 261.434 208.963C265.279 206.624 265.515 204.294 262.04 202.972C258.818 201.747 259.154 198.834 262.618 197.955C265.487 197.228 265.41 195.515 262.364 192.25C259.557 189.242 258.87 189.394 256.935 193.452Z" fill="#FFCCCC"/>
<path fill-rule="evenodd" clip-rule="evenodd" d="M184.147 1.75C184.559 2.713 185.108 4.738 185.368 6.25C185.639 7.829 186.484 9 187.351 9C188.514 9 188.717 8.272 188.232 5.845C187.549 2.429 185.95 0 184.384 0C183.827 0 183.725 0.762 184.147 1.75ZM179.613 1.941C179.613 2.459 180.063 3.16 180.613 3.5C181.163 3.84 181.613 5.441 181.613 7.059C181.613 10.342 183.156 11.015 184.071 8.132C184.883 5.573 183.003 1 181.138 1C180.299 1 179.613 1.423 179.613 1.941ZM170.224 7.722C169.827 8.12 167.389 8.457 164.807 8.472C160.455 8.498 160.109 8.687 160.062 11.066C160.035 12.477 159.022 15.021 157.812 16.72C154.798 20.954 155.01 21.739 159.538 23.096C165.427 24.86 166.939 23.887 166.092 18.877L165.396 14.759L168.579 16.63C171.7 18.464 171.789 18.462 173.187 16.559C173.971 15.491 174.613 12.904 174.613 10.809C174.613 7.782 174.237 7 172.78 7C171.771 7 170.621 7.325 170.224 7.722ZM172.543 10.75C172.504 11.163 172.159 12.291 171.777 13.258C171.122 14.913 170.94 14.918 168.676 13.331C166.396 11.735 166.371 11.607 168.192 10.894C170.753 9.89 172.629 9.828 172.543 10.75ZM139.588 17.565C138.343 20.841 138.357 22.654 139.648 25.066C141.426 28.388 142.146 27.216 142.146 21C142.146 14.631 141.191 13.348 139.588 17.565ZM163.543 19.75C163.615 21.028 160.446 21.5 159.325 20.378C158.983 20.036 159.47 18.731 160.408 17.478C161.896 15.488 162.199 15.408 162.793 16.849C163.167 17.757 163.504 19.063 163.543 19.75ZM144.022 20.507C143.627 22.078 144.002 23.945 145.026 25.507C146.902 28.371 149.235 28.941 148.068 26.25C147.65 25.288 147.103 23.038 146.851 21.25C146.307 17.38 144.899 17.01 144.022 20.507ZM98.8579 28.236C99.0849 28.915 101.177 29.797 103.507 30.195C111.531 31.565 116.617 36.145 122.07 46.911C126.384 55.43 132.155 81 129.764 81C127.436 81 95.9329 85.411 75.6939 88.57C59.1199 91.157 53.0869 91.767 52.5549 90.907C52.1599 90.267 51.5399 87.507 51.1769 84.773C49.6429 73.204 43.1919 57.007 37.5679 50.602C32.1209 44.398 21.1939 42.185 17.5699 46.552C16.4799 47.865 17.0059 47.971 21.7929 47.409C28.1709 46.659 31.8669 48.136 36.0489 53.107C42.6819 60.989 46.3179 71.89 50.6039 96.737C52.2889 106.507 56.4809 130.056 59.9199 149.068L66.1719 183.636L62.4479 191.568C55.4999 206.369 53.8339 219.819 58.2229 225.666C59.4899 227.353 62.9169 229.143 68.6129 231.092C73.2879 232.692 78.0129 234.451 79.1129 235.002C82.0059 236.451 111.544 244.181 130.345 248.409C158.534 254.748 167.6 255.272 185.078 251.57C205.073 247.335 222.613 240.962 222.613 237.931C222.613 237.438 220.343 235.883 217.569 234.477C213.803 232.569 202.076 229.874 171.319 223.849C115.93 212.998 115.958 213.007 117.127 206.779C117.478 204.904 118.096 202.837 118.498 202.186C119.035 201.317 125.077 202.478 141.172 206.543C173.599 214.732 170.34 214.833 206.61 204.515C223.383 199.744 237.265 195.682 237.458 195.488C237.652 195.294 238.407 181.043 239.137 163.818C240.368 134.763 240.343 132.404 238.789 131.166C235.418 128.483 214.176 118.215 174.113 99.902L133.113 81.162L132.362 74.331C131.343 65.056 127.193 50.868 123.44 43.827C118.046 33.707 109.045 27.025 100.78 27.006C99.3699 27.002 98.6089 27.489 98.8579 28.236ZM104.985 52.344C105.411 54.042 104.889 55.332 103.093 57.019C100.242 59.697 99.7269 65.019 102.125 67.01C103.233 67.929 103.349 68.613 102.561 69.563C100.042 72.598 110.458 74.353 114.172 71.519C115.734 70.327 115.849 69.864 114.76 69.146C113.721 68.462 113.663 67.775 114.51 66.193C115.117 65.059 115.613 62.977 115.613 61.566C115.613 59.952 116.169 59 117.113 59C120.195 59 118.458 57.373 114.144 56.22C111.346 55.471 109.06 54.085 108.029 52.512C105.957 49.349 104.209 49.253 104.985 52.344ZM72.4849 56.655C70.6239 58.899 65.0819 61.117 63.1689 60.383C62.1589 59.995 61.6129 60.35 61.6129 61.393C61.6129 62.44 62.4829 63 64.1129 63C66.0479 63 66.6129 63.515 66.6129 65.277C66.6129 66.53 67.2929 68.526 68.1239 69.712C69.1339 71.154 69.2839 72.085 68.5749 72.523C66.2889 73.936 69.8729 76 74.6129 76C79.3419 76 82.9359 73.936 80.6589 72.528C79.9449 72.087 79.9289 71.278 80.6099 70.005C82.3189 66.813 81.7729 62.227 79.4239 60.039C78.2209 58.918 76.8709 58 76.4239 58C75.9779 58 75.6129 57.325 75.6129 56.5C75.6129 54.524 74.1939 54.594 72.4849 56.655ZM106.261 60.559C106.342 61.966 107.131 63.915 108.013 64.89C110.091 67.185 109.066 68.164 106.032 66.781C103.116 65.452 102.139 62.754 103.593 60.038C105.07 57.278 106.083 57.476 106.261 60.559ZM74.6279 68.518C76.3309 70.57 75.2739 71.424 72.7219 70.058C69.3239 68.24 68.4709 65.648 70.3749 62.93L72.0409 60.55L72.6999 63.769C73.0619 65.539 73.9289 67.676 74.6279 68.518ZM89.1699 70.223C87.2069 73.024 87.1869 75.402 89.1129 77C90.3979 78.066 90.6129 77.741 90.6129 74.729C90.6129 70.129 92.9189 69.215 96.2139 72.51C99.2129 75.509 99.6129 75.573 99.6129 73.057C99.6129 70.722 96.0249 68 92.9469 68C91.7259 68 90.0259 69 89.1699 70.223ZM130.613 105.583C130.613 117.454 130.27 127.017 129.851 126.833C129.432 126.65 125.72 125.226 121.601 123.67C117.483 122.113 113.213 120.446 112.113 119.966C111.013 119.485 102.121 115.898 92.3529 111.995C73.2209 104.351 59.2239 98.07 56.2649 95.8C54.6239 94.542 57.2039 93.963 79.2649 90.637C113.819 85.428 122.542 84.231 126.863 84.107L130.613 84V105.583ZM164.113 97.981C192.48 110.806 235.613 131.528 235.613 132.331C235.613 132.59 226.951 134.879 216.363 137.417C205.775 139.955 195.763 142.445 194.113 142.949C192.463 143.454 188.638 144.151 185.613 144.499C179.779 145.169 174.375 143.553 143.863 132.015L132.613 127.761L132.467 118.13C132.274 105.385 132.414 99.951 133.16 91.26C133.705 84.919 133.989 84.129 135.447 84.897C136.363 85.379 149.263 91.267 164.113 97.981ZM66.7189 103.891C73.5359 107.131 86.3129 112.596 95.1129 116.034C103.913 119.472 112.013 122.658 113.113 123.113C114.213 123.568 118.488 125.253 122.613 126.858L130.113 129.775L130.385 147.733L130.657 165.691L124.135 167.457C120.548 168.428 117.613 169.622 117.613 170.111C117.613 171.401 120.089 171.208 126.151 169.446C130.434 168.201 132.324 168.114 135.656 169.012C137.943 169.628 140.04 169.907 140.314 169.632C141.371 168.575 139.489 167.199 136.124 166.568L132.613 165.909V148.455C132.613 138.855 132.905 131 133.262 131C133.618 131 139.581 133.074 146.512 135.61C153.442 138.145 163.388 141.785 168.613 143.698C173.838 145.611 178.389 147.474 178.726 147.838C179.367 148.53 177.006 175.94 176.24 176.707C175.998 176.948 168.979 175.313 160.643 173.073C144.731 168.798 143.041 168.498 142.232 169.807C141.958 170.251 149.244 172.572 158.423 174.964C167.603 177.357 175.447 179.6 175.854 179.949C176.548 180.542 174.045 209.902 173.231 210.715C172.784 211.163 155.274 207.67 144.113 204.906C139.713 203.817 121.551 198.814 103.753 193.788L71.3919 184.651L88.2529 179.978C115.348 172.468 116.956 171.943 115.94 170.927C115.355 170.342 106.363 172.392 92.0569 176.373C79.4379 179.885 68.9969 182.66 68.8559 182.539C68.5829 182.306 53.6169 100.029 53.6139 98.75C53.6119 97.64 53.3579 97.54 66.7189 103.891ZM237.566 144.25C237.492 158.83 235.877 193.069 235.233 193.714C234.624 194.322 176.309 211.032 175.977 210.693C175.655 210.365 181.378 147.896 181.757 147.606C181.953 147.456 187.963 146.114 195.113 144.625C202.263 143.135 213.963 140.401 221.113 138.549C228.263 136.697 234.9 135.141 235.863 135.091C237.413 135.01 237.608 136.056 237.566 144.25ZM39.6459 173.25C39.6819 174.587 43.0409 179 44.0229 179C45.3629 179 44.4799 175.19 42.7839 173.655C40.6019 171.68 39.6009 171.551 39.6459 173.25ZM35.6129 175.826C35.6129 176.797 39.9299 181 40.9269 181C42.2899 181 41.5719 178.273 39.7839 176.655C37.8409 174.896 35.6129 174.453 35.6129 175.826ZM23.6129 186.5C23.6129 190.535 22.2459 190.943 18.9859 187.88L16.7289 185.761L14.6749 189.13C11.6299 194.125 11.9769 195 17.0059 195C19.9879 195 21.5839 195.482 21.9749 196.5C22.2909 197.325 23.4639 198 24.5819 198C26.1299 198 26.6139 197.347 26.6159 195.25C26.6179 193.309 27.4999 191.911 29.6129 190.5C33.3569 187.999 33.3759 186.882 29.7089 184.716C25.1319 182.012 23.6129 182.457 23.6129 186.5ZM92.1129 193.012C103.663 196.366 113.87 199.331 114.795 199.601C116.128 199.99 116.301 200.653 115.628 202.796C114.047 207.827 113.693 210.512 114.449 211.734C115.185 212.925 133.176 218.682 143.113 220.907C145.863 221.523 160.713 224.469 176.113 227.454C220.612 236.079 222.144 236.484 219.277 238.864C217.064 240.7 195.914 246.679 179.693 250.053L165.273 253.053L152.193 250.458C122.851 244.639 72.3619 231.623 65.6819 228.156C56.1689 223.219 55.7609 212.574 64.3629 193.73C67.0109 187.929 68.3159 186.08 69.5109 186.436C70.3919 186.699 80.5629 189.658 92.1129 193.012ZM0.148878 190.885C-0.584122 193.197 1.55088 198.203 3.03488 197.651C3.62788 197.43 3.93288 196.631 3.71388 195.875C3.49388 195.119 3.10588 193.262 2.84988 191.75C2.31388 188.572 1.01588 188.156 0.148878 190.885ZM4.61288 192.441C4.61288 195.483 6.02988 197.917 7.14888 196.798C7.87988 196.067 6.36988 189 5.48188 189C5.00388 189 4.61288 190.548 4.61288 192.441ZM256.935 193.452C255.968 195.48 254.432 197.026 253.211 197.202C250.113 197.647 249.996 200.762 253.025 202.142C254.758 202.932 255.782 204.386 256.21 206.664C257.028 211.025 257.617 211.284 261.434 208.963C265.279 206.624 265.515 204.294 262.04 202.972C258.818 201.747 259.154 198.834 262.618 197.955C265.487 197.228 265.41 195.515 262.364 192.25C259.557 189.242 258.87 189.394 256.935 193.452Z" fill="#979797"/>
<path fill-rule="evenodd" clip-rule="evenodd" d="M98.8579 28.2359C99.0849 28.9149 101.177 29.7969 103.507 30.1949C111.531 31.5649 116.617 36.1449 122.07 46.9109C126.384 55.4299 132.155 80.9999 129.764 80.9999C127.436 80.9999 95.9329 85.4109 75.6939 88.5699C59.1199 91.1569 53.0869 91.7669 52.5549 90.9069C52.1599 90.2669 51.5399 87.5069 51.1769 84.7729C49.6429 73.2039 43.1919 57.0069 37.5679 50.6019C32.1209 44.3979 21.1939 42.1849 17.5699 46.5519C16.4799 47.8649 17.0059 47.9709 21.7929 47.4089C28.1709 46.6589 31.8669 48.1359 36.0489 53.1069C42.6819 60.9889 46.3179 71.8899 50.6039 96.7369C52.2889 106.507 56.4809 130.056 59.9199 149.068L66.1719 183.636L62.4479 191.568C55.4999 206.369 53.8339 219.819 58.2229 225.666C59.4899 227.353 62.9169 229.143 68.6129 231.092C73.2879 232.692 78.0129 234.451 79.1129 235.002C82.0059 236.451 111.544 244.181 130.345 248.409C158.534 254.748 167.6 255.272 185.078 251.57C205.073 247.335 222.613 240.962 222.613 237.931C222.613 237.438 220.343 235.883 217.569 234.477C213.803 232.569 202.076 229.874 171.319 223.849C115.93 212.998 115.958 213.007 117.127 206.779C117.478 204.904 118.096 202.837 118.498 202.186C119.035 201.317 125.077 202.478 141.172 206.543C173.599 214.732 170.34 214.833 206.61 204.515C223.383 199.744 237.265 195.682 237.458 195.488C237.652 195.294 238.407 181.043 239.137 163.818C240.368 134.763 240.343 132.404 238.789 131.166C235.418 128.483 214.176 118.215 174.113 99.9019L133.113 81.1619L132.362 74.3309C131.343 65.0559 127.193 50.8679 123.44 43.8269C118.046 33.7069 109.045 27.0249 100.78 27.0059C99.3699 27.0019 98.6089 27.4889 98.8579 28.2359ZM104.985 52.3439C105.411 54.0419 104.889 55.3319 103.093 57.0189C100.242 59.6969 99.7269 65.0189 102.125 67.0099C103.233 67.9289 103.349 68.6129 102.561 69.5629C100.042 72.5979 110.458 74.3529 114.172 71.5189C115.734 70.3269 115.849 69.8639 114.76 69.1459C113.721 68.4619 113.663 67.7749 114.51 66.1929C115.117 65.0589 115.613 62.9769 115.613 61.5659C115.613 59.9519 116.169 58.9999 117.113 58.9999C120.195 58.9999 118.458 57.3729 114.144 56.2199C111.346 55.4709 109.06 54.0849 108.029 52.5119C105.957 49.3489 104.209 49.2529 104.985 52.3439ZM72.4849 56.6549C70.6239 58.8989 65.0819 61.1169 63.1689 60.3829C62.1589 59.9949 61.6129 60.3499 61.6129 61.3929C61.6129 62.4399 62.4829 62.9999 64.1129 62.9999C66.0479 62.9999 66.6129 63.5149 66.6129 65.2769C66.6129 66.5299 67.2929 68.5259 68.1239 69.7119C69.1339 71.1539 69.2839 72.0849 68.5749 72.5229C66.2889 73.9359 69.8729 75.9999 74.6129 75.9999C79.3419 75.9999 82.9359 73.9359 80.6589 72.5279C79.9449 72.0869 79.9289 71.2779 80.6099 70.0049C82.3189 66.8129 81.7729 62.2269 79.4239 60.0389C78.2209 58.9179 76.8709 57.9999 76.4239 57.9999C75.9779 57.9999 75.6129 57.3249 75.6129 56.4999C75.6129 54.5239 74.1939 54.5939 72.4849 56.6549ZM106.261 60.5589C106.342 61.9659 107.131 63.9149 108.013 64.8899C110.091 67.1849 109.066 68.1639 106.032 66.7809C103.116 65.4519 102.139 62.7539 103.593 60.0379C105.07 57.2779 106.083 57.4759 106.261 60.5589ZM74.6279 68.5179C76.3309 70.5699 75.2739 71.4239 72.7219 70.0579C69.3239 68.2399 68.4709 65.6479 70.3749 62.9299L72.0409 60.5499L72.6999 63.7689C73.0619 65.5389 73.9289 67.6759 74.6279 68.5179ZM89.1699 70.2229C87.2069 73.0239 87.1869 75.4019 89.1129 76.9999C90.3979 78.0659 90.6129 77.7409 90.6129 74.7289C90.6129 70.1289 92.9189 69.2149 96.2139 72.5099C99.2129 75.5089 99.6129 75.5729 99.6129 73.0569C99.6129 70.7219 96.0249 67.9999 92.9469 67.9999C91.7259 67.9999 90.0259 68.9999 89.1699 70.2229ZM130.613 105.583C130.613 117.454 130.27 127.017 129.851 126.833C129.432 126.65 125.72 125.226 121.601 123.67C117.483 122.113 113.213 120.446 112.113 119.966C111.013 119.485 102.121 115.898 92.3529 111.995C73.2209 104.351 59.2239 98.0699 56.2649 95.7999C54.6239 94.5419 57.2039 93.9629 79.2649 90.6369C113.819 85.4279 122.542 84.2309 126.863 84.1069L130.613 83.9999V105.583ZM164.113 97.9809C192.48 110.806 235.613 131.528 235.613 132.331C235.613 132.59 226.951 134.879 216.363 137.417C205.775 139.955 195.763 142.445 194.113 142.949C192.463 143.454 188.638 144.151 185.613 144.499C179.779 145.169 174.375 143.553 143.863 132.015L132.613 127.761L132.467 118.13C132.274 105.385 132.414 99.9509 133.16 91.2599C133.705 84.9189 133.989 84.1289 135.447 84.8969C136.363 85.3789 149.263 91.2669 164.113 97.9809ZM66.7189 103.891C73.5359 107.131 86.3129 112.596 95.1129 116.034C103.913 119.472 112.013 122.658 113.113 123.113C114.213 123.568 118.488 125.253 122.613 126.858L130.113 129.775L130.385 147.733L130.657 165.691L124.135 167.457C120.548 168.428 117.613 169.622 117.613 170.111C117.613 171.354 118.784 171.239 125.706 169.314C130.617 167.949 132.561 167.84 135.932 168.74C138.222 169.351 140.257 169.689 140.454 169.492C141.38 168.567 139.304 167.165 136.124 166.568L132.613 165.909V148.455C132.613 138.855 132.905 131 133.262 131C133.618 131 139.581 133.074 146.512 135.61C153.442 138.145 163.388 141.785 168.613 143.698C173.838 145.611 178.389 147.474 178.726 147.838C179.367 148.53 177.006 175.94 176.24 176.707C175.998 176.948 168.979 175.313 160.643 173.073C145.089 168.894 142.613 168.439 142.613 169.765C142.613 170.185 150.314 172.548 159.726 175.015L176.838 179.5L176.256 185.108C175.935 188.193 175.365 195.096 174.989 200.449C174.537 206.884 173.873 210.347 173.029 210.671C171.508 211.254 159.626 208.95 143.113 204.868C129.247 201.44 74.7429 186.08 72.8169 185.058C72.1049 184.679 80.8799 181.784 92.3169 178.624C103.755 175.464 113.946 172.636 114.964 172.34C116.07 172.018 116.45 171.437 115.908 170.895C115.366 170.353 105.777 172.555 92.0569 176.373C79.4379 179.885 68.9969 182.66 68.8559 182.539C68.5829 182.306 53.6169 100.029 53.6139 98.7499C53.6119 97.6399 53.3579 97.5399 66.7189 103.891ZM238.259 138.25C237.939 140.588 237.37 153.071 236.994 165.991C236.619 178.911 236.017 190.581 235.657 191.926C235.053 194.185 232.771 195.001 205.622 202.666C189.462 207.228 176.091 210.811 175.908 210.629C175.552 210.273 180.31 155.608 181.151 150.386C181.649 147.295 181.73 147.257 192.383 145.107C198.284 143.917 210.763 140.971 220.113 138.562C229.463 136.153 237.502 134.141 237.977 134.091C238.451 134.041 238.578 135.912 238.259 138.25ZM39.6459 173.25C39.6819 174.587 43.0409 179 44.0229 179C45.3629 179 44.4799 175.19 42.7839 173.655C40.6019 171.68 39.6009 171.551 39.6459 173.25ZM35.6129 175.826C35.6129 176.797 39.9299 181 40.9269 181C42.2899 181 41.5719 178.273 39.7839 176.655C37.8409 174.896 35.6129 174.453 35.6129 175.826ZM23.6129 186.5C23.6129 190.535 22.2459 190.943 18.9859 187.88L16.7289 185.761L14.6749 189.13C11.6299 194.125 11.9769 195 17.0059 195C19.9879 195 21.5839 195.482 21.9749 196.5C22.2909 197.325 23.4639 198 24.5819 198C26.1299 198 26.6139 197.347 26.6159 195.25C26.6179 193.309 27.4999 191.911 29.6129 190.5C33.3569 187.999 33.3759 186.882 29.7089 184.716C25.1319 182.012 23.6129 182.457 23.6129 186.5ZM92.1129 193.012C103.663 196.366 113.87 199.331 114.795 199.601C116.128 199.99 116.301 200.653 115.628 202.796C114.047 207.827 113.693 210.512 114.449 211.734C115.185 212.925 133.176 218.682 143.113 220.907C145.863 221.523 160.713 224.469 176.113 227.454C220.612 236.079 222.144 236.484 219.277 238.864C217.064 240.7 195.914 246.679 179.693 250.053L165.273 253.053L152.193 250.458C122.851 244.639 72.3619 231.623 65.6819 228.156C56.1689 223.219 55.7609 212.574 64.3629 193.73C67.0109 187.929 68.3159 186.08 69.5109 186.436C70.3919 186.699 80.5629 189.658 92.1129 193.012ZM0.148878 190.885C-0.584122 193.197 1.55088 198.203 3.03488 197.651C3.62788 197.43 3.93288 196.631 3.71388 195.875C3.49388 195.119 3.10588 193.262 2.84988 191.75C2.31388 188.572 1.01588 188.156 0.148878 190.885ZM4.61288 192.441C4.61288 195.483 6.02988 197.917 7.14888 196.798C7.87988 196.067 6.36988 189 5.48188 189C5.00388 189 4.61288 190.548 4.61288 192.441ZM256.935 193.452C255.968 195.48 254.432 197.026 253.211 197.202C250.113 197.647 249.996 200.762 253.025 202.142C254.758 202.932 255.782 204.386 256.21 206.664C257.028 211.025 257.617 211.284 261.434 208.963C265.279 206.624 265.515 204.294 262.04 202.972C258.818 201.747 259.154 198.834 262.618 197.955C265.487 197.228 265.41 195.515 262.364 192.25C259.557 189.242 258.87 189.394 256.935 193.452Z" fill="url(#paint0_linear_402_4175)"/>
<path fill-rule="evenodd" clip-rule="evenodd" d="M111.22 69.2003C110.246 69.7453 107.945 69.9103 106.109 69.5653C102.278 68.8473 100.603 70.3893 103.519 71.9503C107.252 73.9473 115.613 72.6493 115.613 70.0723C115.613 68.6443 113.104 68.1463 111.22 69.2003ZM68.0812 72.8653C67.8332 73.1133 68.1322 73.9203 68.7442 74.6583C70.3002 76.5333 79.0222 76.4173 80.6132 74.5003C81.2982 73.6753 81.6902 72.9393 81.4852 72.8653C80.4232 72.4803 68.4662 72.4803 68.0812 72.8653ZM23.6452 186.25C23.6622 188.037 24.2602 190.267 24.9722 191.205C26.1802 192.795 26.4802 192.761 29.4232 190.705C33.3422 187.967 33.3932 186.892 29.7092 184.716C25.2162 182.061 23.6082 182.468 23.6452 186.25ZM14.6752 189.13C11.6162 194.148 11.9702 195 17.1132 195C21.1562 195 21.6132 194.764 21.6132 192.674C21.6132 191.395 20.5142 189.316 19.1712 188.055L16.7292 185.761L14.6752 189.13ZM256.883 193.559C255.408 196.654 255.377 197.241 256.65 198.057C258.158 199.025 263.491 198.368 264.919 197.038C265.798 196.22 261.016 190 259.508 190C258.998 190 257.817 191.602 256.883 193.559ZM256.08 205.75C256.459 207.813 257.083 209.827 257.466 210.226C258.51 211.311 264.613 207.267 264.613 205.49C264.613 203.848 260.813 202 257.437 202C255.616 202 255.466 202.414 256.08 205.75Z" fill="#7DCA2E"/>
<defs>
<linearGradient id="paint0_linear_402_4175" x1="132.355" y1="17.5649" x2="132.355" y2="253.883" gradientUnits="userSpaceOnUse">
<stop stop-color="#9BC838"/>
<stop offset="1" stop-color="#4F9D01"/>
</linearGradient>
</defs>
</svg>
