<svg width="28" height="28" viewBox="0 0 28 28" fill="none" xmlns="http://www.w3.org/2000/svg">
<path d="M13.9999 25.6663C20.4166 25.6663 25.6666 20.4163 25.6666 13.9997C25.6666 7.58301 20.4166 2.33301 13.9999 2.33301C7.58325 2.33301 2.33325 7.58301 2.33325 13.9997C2.33325 20.4163 7.58325 25.6663 13.9999 25.6663Z" fill="#DFE2E5"/>
<path d="M19.25 10.4887C17.3075 10.2962 15.3533 10.197 13.405 10.197C12.25 10.197 11.095 10.2553 9.94 10.372L8.75 10.4887M11.9583 9.89949L12.0867 9.13533C12.18 8.58116 12.25 8.16699 13.2358 8.16699H14.7642C15.75 8.16699 15.8258 8.60449 15.9133 9.14116L16.0417 9.89949M17.9958 12.332L17.6167 18.2062C17.5525 19.122 17.5 19.8337 15.8725 19.8337H12.1275C10.5 19.8337 10.4475 19.122 10.3833 18.2062L10.0042 12.332M13.0258 16.6253H14.9683M12.5417 14.292H15.4583" stroke="#818181" stroke-linecap="round" stroke-linejoin="round"/>
</svg>
