<svg width="20" height="21" viewBox="0 0 20 21" fill="none" xmlns="http://www.w3.org/2000/svg">
<path fill-rule="evenodd" clip-rule="evenodd" d="M9.67637 2.16663C5.25278 2.16663 1.66675 5.67345 1.66675 9.99934C1.66675 14.3252 5.25278 17.8321 9.67637 17.8321C11.5683 17.8321 13.3071 17.1906 14.6776 16.1179L17.281 18.6572L17.3502 18.7155C17.5919 18.8904 17.9346 18.8705 18.1533 18.6561C18.3939 18.4202 18.3934 18.0382 18.1522 17.803L15.5794 15.2935C16.8875 13.8994 17.686 12.0406 17.686 9.99934C17.686 5.67345 14.1 2.16663 9.67637 2.16663ZM9.67636 3.37307C13.4186 3.37307 16.4523 6.33975 16.4523 9.99934C16.4523 13.6589 13.4186 16.6256 9.67636 16.6256C5.93412 16.6256 2.90044 13.6589 2.90044 9.99934C2.90044 6.33975 5.93412 3.37307 9.67636 3.37307Z" fill="url(#paint0_linear_779_2400)"/>
<defs>
<linearGradient id="paint0_linear_779_2400" x1="10.0001" y1="2.16663" x2="10.0001" y2="18.8333" gradientUnits="userSpaceOnUse">
<stop stop-color="#9BC838"/>
<stop offset="1" stop-color="#4F9D01"/>
</linearGradient>
</defs>
</svg>
