<svg width="24" height="24" viewBox="0 0 24 24" fill="none" xmlns="http://www.w3.org/2000/svg">
<path d="M11.6871 3C9.19807 3 7.17456 5.02351 7.17456 7.51252C7.17456 9.95403 9.08407 11.93 11.5731 12.0155C11.6491 12.006 11.7251 12.006 11.7821 12.0155H11.8296H11.8486C14.2806 11.93 16.1901 9.95403 16.1996 7.51252C16.1996 5.02351 14.1761 3 11.6871 3Z" fill="#4E5157"/>
<path d="M16.514 14.5425C13.8635 12.7755 9.54102 12.7755 6.87151 14.5425C5.665 15.35 5 16.4426 5 17.6111C5 18.7796 5.665 19.8626 6.86201 20.6606C8.19202 21.5536 9.93999 22.0001 11.688 22.0001C13.436 22.0001 15.184 21.5536 16.514 20.6606C17.711 19.8531 18.376 18.7701 18.376 17.5921C18.3665 16.4236 17.711 15.3405 16.514 14.5425Z" fill="#4E5157"/>
</svg>
