<svg width="8" height="10" viewBox="0 0 8 10" fill="none" xmlns="http://www.w3.org/2000/svg">
<path d="M7.88733 3.26829C7.41409 1.01463 5.59775 0 4.00226 0C4.00226 0 4.00226 0 3.99775 0C2.40675 0 0.585906 1.00976 0.112666 3.26341C-0.414658 5.78049 1.00957 7.9122 2.29858 9.25366C2.77633 9.75122 3.3893 10 4.00226 10C4.61522 10 5.22818 9.75122 5.70142 9.25366C6.99043 7.9122 8.41466 5.78537 7.88733 3.26829ZM4.00226 5.7122C3.21803 5.7122 2.58253 5.02439 2.58253 4.17561C2.58253 3.32683 3.21803 2.63902 4.00226 2.63902C4.78649 2.63902 5.42198 3.32683 5.42198 4.17561C5.42198 5.02439 4.78649 5.7122 4.00226 5.7122Z" fill="#818181"/>
</svg>
